<mxfile host="Electron" modified="2023-09-26T01:36:23.107Z" agent="Mozilla/5.0 (Windows NT 10.0; Win64; x64) AppleWebKit/537.36 (KHTML, like Gecko) draw.io/21.7.5 Chrome/114.0.5735.289 Electron/25.8.1 Safari/537.36" etag="6Bh1yx-6wsM27J0Xc2pU" version="21.7.5" type="device" pages="3">
  <diagram name="Page-1" id="ihy6Kaj6BG2X601IoQgA">
    <mxGraphModel dx="1834" dy="436" grid="1" gridSize="10" guides="1" tooltips="1" connect="1" arrows="1" fold="1" page="0" pageScale="1" pageWidth="850" pageHeight="1100" math="0" shadow="0">
      <root>
        <mxCell id="0" />
        <mxCell id="1" parent="0" />
        <mxCell id="uknhyRnm6JWASpGq-0gA-9" value="Resources" style="fillColor=#EFF0F3;strokeColor=none;dashed=0;verticalAlign=top;fontStyle=1;fontColor=#232F3D;whiteSpace=wrap;html=1;" parent="1" vertex="1">
          <mxGeometry x="-244" y="560" width="304" height="220" as="geometry" />
        </mxCell>
        <mxCell id="uknhyRnm6JWASpGq-0gA-1" value="Config" style="sketch=0;points=[[0,0,0],[0.25,0,0],[0.5,0,0],[0.75,0,0],[1,0,0],[0,1,0],[0.25,1,0],[0.5,1,0],[0.75,1,0],[1,1,0],[0,0.25,0],[0,0.5,0],[0,0.75,0],[1,0.25,0],[1,0.5,0],[1,0.75,0]];points=[[0,0,0],[0.25,0,0],[0.5,0,0],[0.75,0,0],[1,0,0],[0,1,0],[0.25,1,0],[0.5,1,0],[0.75,1,0],[1,1,0],[0,0.25,0],[0,0.5,0],[0,0.75,0],[1,0.25,0],[1,0.5,0],[1,0.75,0]];outlineConnect=0;fontColor=#FFFFFF;fillColor=#E7157B;strokeColor=#ffffff;dashed=0;verticalLabelPosition=bottom;verticalAlign=top;align=center;html=1;fontSize=14;fontStyle=1;aspect=fixed;shape=mxgraph.aws4.resourceIcon;resIcon=mxgraph.aws4.config;" parent="1" vertex="1">
          <mxGeometry x="160" y="631" width="78" height="78" as="geometry" />
        </mxCell>
        <mxCell id="uknhyRnm6JWASpGq-0gA-2" value="Security Hub" style="sketch=0;points=[[0,0,0],[0.25,0,0],[0.5,0,0],[0.75,0,0],[1,0,0],[0,1,0],[0.25,1,0],[0.5,1,0],[0.75,1,0],[1,1,0],[0,0.25,0],[0,0.5,0],[0,0.75,0],[1,0.25,0],[1,0.5,0],[1,0.75,0]];outlineConnect=0;fontColor=#FFFFFF;fillColor=#DD344C;strokeColor=#ffffff;dashed=0;verticalLabelPosition=bottom;verticalAlign=top;align=center;html=1;fontSize=14;fontStyle=1;aspect=fixed;shape=mxgraph.aws4.resourceIcon;resIcon=mxgraph.aws4.security_hub;" parent="1" vertex="1">
          <mxGeometry x="330" y="631" width="78" height="78" as="geometry" />
        </mxCell>
        <mxCell id="uknhyRnm6JWASpGq-0gA-3" value="" style="sketch=0;points=[[0,0,0],[0.25,0,0],[0.5,0,0],[0.75,0,0],[1,0,0],[0,1,0],[0.25,1,0],[0.5,1,0],[0.75,1,0],[1,1,0],[0,0.25,0],[0,0.5,0],[0,0.75,0],[1,0.25,0],[1,0.5,0],[1,0.75,0]];outlineConnect=0;fontColor=#232F3E;fillColor=#ED7100;strokeColor=#ffffff;dashed=0;verticalLabelPosition=bottom;verticalAlign=top;align=center;html=1;fontSize=12;fontStyle=0;aspect=fixed;shape=mxgraph.aws4.resourceIcon;resIcon=mxgraph.aws4.ec2;" parent="1" vertex="1">
          <mxGeometry x="-218" y="600" width="78" height="78" as="geometry" />
        </mxCell>
        <mxCell id="uknhyRnm6JWASpGq-0gA-4" value="" style="sketch=0;points=[[0,0,0],[0.25,0,0],[0.5,0,0],[0.75,0,0],[1,0,0],[0,1,0],[0.25,1,0],[0.5,1,0],[0.75,1,0],[1,1,0],[0,0.25,0],[0,0.5,0],[0,0.75,0],[1,0.25,0],[1,0.5,0],[1,0.75,0]];outlineConnect=0;fontColor=#232F3E;fillColor=#C925D1;strokeColor=#ffffff;dashed=0;verticalLabelPosition=bottom;verticalAlign=top;align=center;html=1;fontSize=12;fontStyle=0;aspect=fixed;shape=mxgraph.aws4.resourceIcon;resIcon=mxgraph.aws4.dynamodb;" parent="1" vertex="1">
          <mxGeometry x="-130" y="600" width="78" height="78" as="geometry" />
        </mxCell>
        <mxCell id="uknhyRnm6JWASpGq-0gA-5" value="" style="sketch=0;points=[[0,0,0],[0.25,0,0],[0.5,0,0],[0.75,0,0],[1,0,0],[0,1,0],[0.25,1,0],[0.5,1,0],[0.75,1,0],[1,1,0],[0,0.25,0],[0,0.5,0],[0,0.75,0],[1,0.25,0],[1,0.5,0],[1,0.75,0]];outlineConnect=0;fontColor=#232F3E;fillColor=#7AA116;strokeColor=#ffffff;dashed=0;verticalLabelPosition=bottom;verticalAlign=top;align=center;html=1;fontSize=12;fontStyle=0;aspect=fixed;shape=mxgraph.aws4.resourceIcon;resIcon=mxgraph.aws4.s3;" parent="1" vertex="1">
          <mxGeometry x="-218" y="690" width="78" height="78" as="geometry" />
        </mxCell>
        <mxCell id="uknhyRnm6JWASpGq-0gA-6" value="" style="sketch=0;points=[[0,0,0],[0.25,0,0],[0.5,0,0],[0.75,0,0],[1,0,0],[0,1,0],[0.25,1,0],[0.5,1,0],[0.75,1,0],[1,1,0],[0,0.25,0],[0,0.5,0],[0,0.75,0],[1,0.25,0],[1,0.5,0],[1,0.75,0]];outlineConnect=0;fontColor=#232F3E;fillColor=#DD344C;strokeColor=#ffffff;dashed=0;verticalLabelPosition=bottom;verticalAlign=top;align=center;html=1;fontSize=12;fontStyle=0;aspect=fixed;shape=mxgraph.aws4.resourceIcon;resIcon=mxgraph.aws4.identity_and_access_management;" parent="1" vertex="1">
          <mxGeometry x="-130" y="690" width="78" height="78" as="geometry" />
        </mxCell>
        <mxCell id="uknhyRnm6JWASpGq-0gA-8" value="" style="sketch=0;points=[[0,0,0],[0.25,0,0],[0.5,0,0],[0.75,0,0],[1,0,0],[0,1,0],[0.25,1,0],[0.5,1,0],[0.75,1,0],[1,1,0],[0,0.25,0],[0,0.5,0],[0,0.75,0],[1,0.25,0],[1,0.5,0],[1,0.75,0]];outlineConnect=0;fontColor=#232F3E;fillColor=#7AA116;strokeColor=#ffffff;dashed=0;verticalLabelPosition=bottom;verticalAlign=top;align=center;html=1;fontSize=12;fontStyle=0;aspect=fixed;shape=mxgraph.aws4.resourceIcon;resIcon=mxgraph.aws4.elastic_block_store;" parent="1" vertex="1">
          <mxGeometry x="-40" y="640" width="78" height="78" as="geometry" />
        </mxCell>
        <mxCell id="uknhyRnm6JWASpGq-0gA-10" style="rounded=0;orthogonalLoop=1;jettySize=auto;html=1;strokeWidth=3;endArrow=block;endFill=1;" parent="1" source="uknhyRnm6JWASpGq-0gA-9" target="uknhyRnm6JWASpGq-0gA-1" edge="1">
          <mxGeometry relative="1" as="geometry">
            <mxPoint x="10" y="299" as="sourcePoint" />
            <mxPoint x="140" y="299" as="targetPoint" />
          </mxGeometry>
        </mxCell>
        <mxCell id="uknhyRnm6JWASpGq-0gA-11" style="rounded=0;orthogonalLoop=1;jettySize=auto;html=1;strokeWidth=3;endArrow=block;endFill=1;" parent="1" source="uknhyRnm6JWASpGq-0gA-1" target="uknhyRnm6JWASpGq-0gA-2" edge="1">
          <mxGeometry relative="1" as="geometry">
            <mxPoint x="70" y="680" as="sourcePoint" />
            <mxPoint x="190" y="680" as="targetPoint" />
          </mxGeometry>
        </mxCell>
      </root>
    </mxGraphModel>
  </diagram>
  <diagram id="NW4YGMKBGK69DGCkBoEB" name="Page-2">
    <mxGraphModel dx="1434" dy="836" grid="0" gridSize="10" guides="1" tooltips="1" connect="1" arrows="1" fold="1" page="0" pageScale="1" pageWidth="850" pageHeight="1100" math="0" shadow="0">
      <root>
        <mxCell id="0" />
        <mxCell id="1" parent="0" />
        <mxCell id="7pCcbKnivMy4boOvyqDV-4" value="Bucket" style="sketch=0;points=[[0,0,0],[0.25,0,0],[0.5,0,0],[0.75,0,0],[1,0,0],[0,1,0],[0.25,1,0],[0.5,1,0],[0.75,1,0],[1,1,0],[0,0.25,0],[0,0.5,0],[0,0.75,0],[1,0.25,0],[1,0.5,0],[1,0.75,0]];outlineConnect=0;fontColor=#FFFFFF;gradientColor=#60A337;gradientDirection=north;fillColor=#277116;strokeColor=#ffffff;dashed=0;verticalLabelPosition=bottom;verticalAlign=top;align=center;html=1;fontSize=12;fontStyle=1;aspect=fixed;shape=mxgraph.aws4.resourceIcon;resIcon=mxgraph.aws4.s3;" parent="1" vertex="1">
          <mxGeometry x="192" y="540" width="60" height="60" as="geometry" />
        </mxCell>
        <mxCell id="0cYMqMnYgfQtPlaYT9zV-3" style="edgeStyle=orthogonalEdgeStyle;rounded=0;orthogonalLoop=1;jettySize=auto;html=1;strokeWidth=2;endArrow=block;endFill=1;" parent="1" source="7pCcbKnivMy4boOvyqDV-1" target="7pCcbKnivMy4boOvyqDV-2" edge="1">
          <mxGeometry relative="1" as="geometry" />
        </mxCell>
        <mxCell id="7pCcbKnivMy4boOvyqDV-2" value="Config" style="sketch=0;points=[[0,0,0],[0.25,0,0],[0.5,0,0],[0.75,0,0],[1,0,0],[0,1,0],[0.25,1,0],[0.5,1,0],[0.75,1,0],[1,1,0],[0,0.25,0],[0,0.5,0],[0,0.75,0],[1,0.25,0],[1,0.5,0],[1,0.75,0]];points=[[0,0,0],[0.25,0,0],[0.5,0,0],[0.75,0,0],[1,0,0],[0,1,0],[0.25,1,0],[0.5,1,0],[0.75,1,0],[1,1,0],[0,0.25,0],[0,0.5,0],[0,0.75,0],[1,0.25,0],[1,0.5,0],[1,0.75,0]];outlineConnect=0;fontColor=#FFFFFF;gradientColor=#F34482;gradientDirection=north;fillColor=#BC1356;strokeColor=#ffffff;dashed=0;verticalLabelPosition=bottom;verticalAlign=top;align=center;html=1;fontSize=12;fontStyle=1;aspect=fixed;shape=mxgraph.aws4.resourceIcon;resIcon=mxgraph.aws4.config;" parent="1" vertex="1">
          <mxGeometry x="390" y="390" width="78" height="78" as="geometry" />
        </mxCell>
        <mxCell id="7pCcbKnivMy4boOvyqDV-6" value="KMS" style="sketch=0;points=[[0,0,0],[0.25,0,0],[0.5,0,0],[0.75,0,0],[1,0,0],[0,1,0],[0.25,1,0],[0.5,1,0],[0.75,1,0],[1,1,0],[0,0.25,0],[0,0.5,0],[0,0.75,0],[1,0.25,0],[1,0.5,0],[1,0.75,0]];outlineConnect=0;fontColor=#FFFFFF;gradientColor=#F54749;gradientDirection=north;fillColor=#C7131F;strokeColor=#ffffff;dashed=0;verticalLabelPosition=bottom;verticalAlign=top;align=center;html=1;fontSize=12;fontStyle=1;aspect=fixed;shape=mxgraph.aws4.resourceIcon;resIcon=mxgraph.aws4.key_management_service;" parent="1" vertex="1">
          <mxGeometry x="121" y="540" width="60" height="60" as="geometry" />
        </mxCell>
        <mxCell id="7pCcbKnivMy4boOvyqDV-7" value="Logs" style="sketch=0;points=[[0,0,0],[0.25,0,0],[0.5,0,0],[0.75,0,0],[1,0,0],[0,1,0],[0.25,1,0],[0.5,1,0],[0.75,1,0],[1,1,0],[0,0.25,0],[0,0.5,0],[0,0.75,0],[1,0.25,0],[1,0.5,0],[1,0.75,0]];points=[[0,0,0],[0.25,0,0],[0.5,0,0],[0.75,0,0],[1,0,0],[0,1,0],[0.25,1,0],[0.5,1,0],[0.75,1,0],[1,1,0],[0,0.25,0],[0,0.5,0],[0,0.75,0],[1,0.25,0],[1,0.5,0],[1,0.75,0]];outlineConnect=0;fontColor=#FFFFFF;gradientColor=#F34482;gradientDirection=north;fillColor=#BC1356;strokeColor=#ffffff;dashed=0;verticalLabelPosition=bottom;verticalAlign=top;align=center;html=1;fontSize=12;fontStyle=1;aspect=fixed;shape=mxgraph.aws4.resourceIcon;resIcon=mxgraph.aws4.cloudwatch_2;" parent="1" vertex="1">
          <mxGeometry x="261" y="540" width="60" height="60" as="geometry" />
        </mxCell>
        <mxCell id="0cYMqMnYgfQtPlaYT9zV-2" value="Lambda" style="outlineConnect=0;dashed=0;verticalLabelPosition=bottom;verticalAlign=top;align=center;html=1;shape=mxgraph.aws3.lambda_function;fillColor=#F58534;gradientColor=none;fontStyle=1" parent="1" vertex="1">
          <mxGeometry x="680" y="393" width="69" height="72" as="geometry" />
        </mxCell>
        <mxCell id="0cYMqMnYgfQtPlaYT9zV-4" value="Custom Rule" style="sketch=0;outlineConnect=0;fontColor=#FFFFFF;gradientColor=none;fillColor=#B0084D;strokeColor=none;dashed=0;verticalLabelPosition=bottom;verticalAlign=top;align=center;html=1;fontSize=12;fontStyle=1;aspect=fixed;pointerEvents=1;shape=mxgraph.aws4.rule_2;" parent="1" vertex="1">
          <mxGeometry x="510" y="404" width="51.32" height="50" as="geometry" />
        </mxCell>
        <mxCell id="0cYMqMnYgfQtPlaYT9zV-5" style="edgeStyle=orthogonalEdgeStyle;rounded=0;orthogonalLoop=1;jettySize=auto;html=1;strokeWidth=2;endArrow=block;endFill=1;" parent="1" source="7pCcbKnivMy4boOvyqDV-2" target="0cYMqMnYgfQtPlaYT9zV-4" edge="1">
          <mxGeometry relative="1" as="geometry">
            <mxPoint x="270" y="439" as="sourcePoint" />
            <mxPoint x="400" y="439" as="targetPoint" />
          </mxGeometry>
        </mxCell>
        <mxCell id="0cYMqMnYgfQtPlaYT9zV-6" style="edgeStyle=orthogonalEdgeStyle;rounded=0;orthogonalLoop=1;jettySize=auto;html=1;strokeWidth=2;endArrow=block;endFill=1;" parent="1" source="0cYMqMnYgfQtPlaYT9zV-4" target="0cYMqMnYgfQtPlaYT9zV-2" edge="1">
          <mxGeometry relative="1" as="geometry">
            <mxPoint x="478" y="439" as="sourcePoint" />
            <mxPoint x="540" y="439" as="targetPoint" />
          </mxGeometry>
        </mxCell>
        <mxCell id="0cYMqMnYgfQtPlaYT9zV-8" value="Custom Remediation" style="edgeStyle=orthogonalEdgeStyle;rounded=0;orthogonalLoop=1;jettySize=auto;html=1;strokeWidth=2;endArrow=block;endFill=1;entryX=0.5;entryY=0;entryDx=0;entryDy=0;entryPerimeter=0;exitX=0.5;exitY=0;exitDx=0;exitDy=0;exitPerimeter=0;dashed=1;" parent="1" source="0cYMqMnYgfQtPlaYT9zV-2" target="7pCcbKnivMy4boOvyqDV-1" edge="1">
          <mxGeometry relative="1" as="geometry">
            <mxPoint x="571" y="439" as="sourcePoint" />
            <mxPoint x="690" y="439" as="targetPoint" />
            <Array as="points">
              <mxPoint x="715" y="350" />
              <mxPoint x="221" y="350" />
            </Array>
          </mxGeometry>
        </mxCell>
        <mxCell id="0cYMqMnYgfQtPlaYT9zV-9" value="" style="shape=image;verticalLabelPosition=bottom;labelBackgroundColor=default;verticalAlign=top;aspect=fixed;imageAspect=0;image=data:image/png,iVBORw0KGgoAAAANSUhEUgAABLAAAAHDCAYAAAA0r+MHAAAABGdBTUEAALGPC/xhBQAAACBjSFJNAAB6JgAAgIQAAPoAAACA6AAAdTAAAOpgAAA6mAAAF3CculE8AAAABmJLR0QA/wD/AP+gvaeTAABu5UlEQVR42u3dd3xddf348dfn3KS7UPZGEEoWm4oDvwKKC4TaJo0KCOJCQMWBW7Tiz4ETN6CIssSMlgriAioIqFBAKMm9oUwB2bs7yfn8/gCR0ZaMe2/uvef1fDx4KCVN7n2d5Ix3zgBJkiRJkiSpggUTSJKkqtLRMw7qNqGOjSFuQUw3IYb1iXEyganEMIHAVAKTiUwA1gcmEphAjNMgDGX/5ylgBbAUeALiCgjLieFxkrj8mX9/HOITwH3E3IOkdffRvsMTLiBJkqTic4AlSZIqQ0fMQe9W5MJ2pGxHCNtB3JwYNieJmxDDJhA2gzitgt/FSuB+AvcR44PAfcTwAAl3QlhCqFvC7B0fdGFLkiQNjwMsSZJUPvPyGzGQNBEGX04StgdeRmQ7YDtga6A+AxWeJLCEGG4lpkuAJcSwhDpuYXbTI36TSJIkvZgDLEmSVHzn3rQB9eNbyKXNRFqAZuDlz/yjtbsP6AF6ifE6QryO1uZeQoimkSRJWeYAS5IkjVxHzziS3K7AKwjsCbGFGJoq/DK/avMQcD1wAzFcT5JeQ2vzXWaRJElZ4gBLkiQNTUfMkfQ2EsNehLAX8N9/Jhin7O4jcCVwCTG9iraWHpNIUoW4cNEknpo6ifFhPUKcykA6iVycDMk00nQSSVj3djONGzz7/5PwGGnoB5ZCXEESVzKYe5Lc4ADUPQ5hNStXLGPp6qUcPaPf+KplDrAkSdKLxRjo7NuJhFdAOgPCDGAPYJJxKtKdwOXAQkL8q2doSVKRXLhoEgOTNyWNmxPDJoS4KSRbEOMmwCbAFs/87zQCk4hsMIZH948ReYAQHyYNDxHi/RAeAh4ixIcYDPeTpA9Tn/s3MxufcuGq2jjAkiRJTw+sunubIdkf2I/AvkQ2NkzVuhPiHyAsYFLdXzlw+iqTSNIatn2/69uC1XE7Erbj+Q8WeRlPP1xkco2++weB2wncBuF2YryNmN5OrLud9oZ7/eZQJXKAJUlSVnXf8nIYPIAYXgtx/2d21FV7lgOXEbiQUH8Bs3d80CSSMqMj5qB3e5KkiRCbiGEHeN6QaryRXmQlcDuRPuAmkngjg8m/aG+8wzQaSw6wJEnKiu5bXk468FpC2Ad4C7CtUTJnEPgHMV5ILsxndtMtJpFUE05bVM/G621DHGwhxmZC0kKIzUSa8PL3YnkSWAz0QOglDdcx8anrOXjGctOoHBxgSZJUqzp6xlEX9iUNhwBv4+nfNkvPdT0hnk3d4G+YucsD5pBUFbqXbE0c2IPAnsS4B7AzhO2AnHHKbgDIQ7yKmFxJkruc1un3mEWl4ABLkqRa0tGzISH3BgIHQzwEWN8oGoJBYCExns2E5V3+Nl1SxVhQ2JL+uBeRvQjsBcwANjdMRXv+k3Jbm3sJIZpFo+UAS5Kkatd9y8uJ6cEQ3wbsC9QbRaPwBITfEdKzmN10qQcdksqmq3c6MdmbEPcE9oCwB8Rphql690G4AtK/AX+mrXmJSTQSDrAkSao2MQa6Cq8GZhM4BJhuFJXIrcDZ1IdfMLPxP+aQVDQdMUfS20hI9nnmYSL74r0Zs+J24CJCvJDBeAXtLatNoqFwgCVJUrWYd0sTg4PvIHAYsKNBVEb9BC6AeDqtzZeYQ9KwnXXjZCZM2IMwuA8hvBbCaz27SgQeAy4hjRexeuBCDtv1MaNo7d8ukiSpcnX0bUUS2yDOAfYxiCpg7/E64HSenHAWR22/0iCS1mj+DdMYmPB6QnwdhH2A3YE6w2gdBoArCVzEYJhHe+MdJtHzd0EkSVJl6bhtfcKqmYQwB3iLO/yqSJEHSMKvGAw/or3hXoNIGTc3JjQX9iDEAwjhAOB1wDjDaMQC1xHD2aS582if/pBB5ABLkqRKcNqiejacfDBwOIEDgfFGUZVYReC3DPId2psWm0PKkHm3bsrgwL6EeABwMLCFUVQCq4E/E2OnT8rNNgdYkiSNpQWFLVmdvpuQHAdxG4OoikXg94T4ZVqbrzeHVIMWLqzjoS1fRS6+DeIBRPb0mFJl5pNyM8yVjSRJ5TY3JuySfz2EDxKZhZcIqrY8PchKmUt703XmkKpcR88UcuEgCK1EDgQmG0UV4k4ivyap+wWt0+8xR+1zgCVJUrksWLwZq3PvIYSjge0NohrnIEuqVvNvmMbAxDcSOBjiLGCKUVTBUuAyYjid2DCP9jBoktrkAEuSpFLryO9FEo6H+A68oa2yx0GWVA3m5TcixrcTaYXwBrdXqtJNzm2E8DMGx/2C9h2esEdtcYAlSVIpnHnHBKaueg/E44FGg0hEiJ2kyWd9NLpUIebduinpQCvQCnFfvKRdteMp4ExydT9k1vTbzFEbHGBJklRMCwpT6ee9xPhpAlsaRHqR1cCppOO+5G/HpTFw2qJ6Npp0EPAeCAcC9UZRDUuJLCAJ36W18SpzVDcHWJIkFcOCxZuxuu4YQjge4jSDSC/pEQhfJW34sfcrkcqgq6eFkHs3MR4FbGoQZdBVwMm0Nl7k0wurkwMsSZJGY/6SHRgc+CjwQWCCQaThinli7pPMafiDLaQi61iyCcngocB7IO5uEAmA6wnhGyxumMfckJqjejjAkiRpJLp69oDcxyEeCuQMIo3aJZB+jLaWHlNIo9ARc+Ty+0P4IJGZeDN2aS1insg3iU3neiZwdXCAJUnScHTm9yPwZWA/Y0hFt5oYTmHC0q9w8Izl5pCGYd6tmzK4+ihC+DCwtUGkIeshhq/Q1tDlpYWVzQGWJElD0ZHfhRwnEpljDKnkbieJH2J2819MIb3k9mkvcnyUyDuA8QaRRmwRSfy8257K5QBLkqR16eprJKQnEWlzuymVfU+1k1XJsRza8LAxpOeYGxN2LhwEfBQ4wCBSUV0C6adpa7nBFJW2WyBJkl6so2dbkuQLwHuBOoNIYyTyAMRPM6f5LGPIbdNt65P0vwfiJ4BtDSKVcOsT6ILcZ2nd6XZzVAYHWJIkPe/gYMkm5AY/SYzH41MFpUo6lPg99QPH8PZd7jaGMqerp4WQ+xgxHgZMNIhUNishfpfl/d/giN2WmWNsOcCSJAlgQWEqq9NjCeELwFSDSBXpSQhf4uaGH/noc2VCR34XkvApn3grjbHIfyB+jrams73R+9hxgCVJyraFC+t4ZPMPETiJyAYGkarCXwnxPbQ232UK1aSuwgxiPJHAwR6zSRUkxCuB42ltvt4YY5DfBJKkzOrI70vCD4FdjSFVnScJfIrWptNNodrZLvXsTi75vA8OkSpaCvyClXWf4vDpT5qjfFwpSpKyZ0FhS/r5JsTD3RZK1S7+gfrk/cxs/I8tVLU6868h8DngbcaQqsZ9xPhZHzJSPu60S5Ky47RF9Ww05ViIX8X7XEm15CFCPJrW5vmmUFXpzO9H4EvA/saQqlTk99TxYWY13WmM0nKAJUnKhu7eA4jhR0CjMaSa3bU9m/FLP8TBM5bbQhWtq6+RkJ5EZI4xpJqwghi/Qmz6Du1h0Bwl2sqbQJJU2wcJvdOJ4fsEDjKGlAm9kLbT1tJjClWc8/o2Zlx6InAsUGcQqeZcDcn7aGsomKL4HGBJkmpTR884crkvEuNngHEGkTJlKTF8iDmN55pCFeHCRZNYOekjhPB5YD2DSDVtJTHO9Wys4nOAJUmqPR09u5MkvwT2MIaU6V3ds1m+6hiO2G2ZLTQm5saElr4jCfGrwFYGkTLlKnIc7r2xirhVN4EkqWZcuGgSKyefROBjQM4gkoAbScMs2hvvMIXKal7h9aTxO/jLFCnLnoRwHG2N55hi9BxgSZJqQ3dhH2I8A2gwhqQXeJQQ30Fr8yWmUMl1FBoI8bvee1HS/4Szqec4ZjY+ZYtRVDSBJKmqXbhoEqunfIkYPwUkBpG0FoPE+AXmNJ9sCpVEx90TCUs/Q+CzwHiDSHqBu0iTw2lvuNIUI+MAS5JUvbrybwZOB7Y1hqQh+g3jl72fg2csN4WKuD06GPghsJ0xJK3DAJGvERu/6g3eh88BliSp+px70waMr/8+cKQxJI3AtaTpIbS33G8KjUpHYXtC/JGXC0oapitI03fT3vJvUwydAyxJUnXp6nklJOcBLzeGpFG4lyQ5iNkNN5pCw9YRc+TyHyGG/wdMNoikYQs8RoyH09Z8sTGGmkySpGo5WAj5Ewjhq0C9QSQVYVf4cWKcxZymv9pCQzavd2fS8AvglcaQNEqREL7F4obPMzek5niJrbYJJEkV74LF2zBQdw7wOmNIKrLVEN7nI871ki5eMp7lA58HPguMM4ikoon8nrqVhzNrj8eNsXYOsCRJla0zP5uEXxDZwBiSSnboQDiRtsavmUJr1JHfhYRfA3sYQ1KJ/BtCK22Ni0yxZg6wJEmV6cw7JjB15cnAR40hqUx+ws2NH/UyDj1r4cI6Ht7sk4RwEp51Jan0VhLDscxpPNMUL+YAS5JUeTp6mkmS3wC7GkNSecVz2OiBo9h//wFbZNy8W5pIB38NvMIYksrsdNL0I7S3rDbF/zjAkiRVlq7e4yB8B5hgDEljItJFTA/zwCGryz8GugvHAd92WyRp7IS/sTrM5tCGh23xTBETSJIqwtOXDJ4KHGkMSWMuchkxnUl7y1JjZMh5fRszLv0lcLAxJFWA2yE5iLaGgikcYEmSKkFHYXuSOB/YzRiSKsgVpOlBDrEyYl7h9aTxLGArY0iqII+SMpv2psuzHsIBliRpbHXk9yWhA9jUGJIq0FWk6VscYtWwhQvreHiLrxHiCUBiEEkVaBVwFG1Nv8lyBAdYkqSx053/IJGfAHXGkFTBu8x/Y/mqt3LEbstsUWvboSVbEwfOB/YxhqQKF4mcxJymuZndGvs9IEkquzPvmMB6K08jcoQxJFWJS0inHEL7NitMUSPmFV7PYDyPwGbGkFRFfsUjyz7I0TP6s/bGHWBJksqro2dbcsk8InsZQ1KV+TNPTZjJUduvNEU1b4dijlA4kcCJeMmgpKoULiW3oo1ZezyeqXftgpcklU1n/k0EfgNsaAxJ1SkuYKMH2th//wFbVKHz+jZmXDwf4huMIanK3UBa92bapz+UlTfsbxwkSeXRnf8kgYtxeCWpqoWZPLLZacToL4Krzby+3RiXXuPwSlKN2INk4Aq6l2ydmS2wy1ySVFIdMUdSOAX4sDEk1ZBv0tb0OTNUic7edxLCGcAkY0iqMXeSqzuAWdNvq/U36gBLklQ6Z94xgakrfg2h3RiSanBP+gRam75riAr29C9RvgmcYAxJNbxBupuUN9Le2Ffbm11JkkphXn4jUhbgo8kl1a5IDO9jTuOZpqhAHT1TSJLzgIONISkDHiRJ3sTshhtr9Q06wJIkleKgYUeS5A/AjsaQVOP6ScJbmN14mSkqSPeSrYkDvwP2MIak7AiPE9K30tr8j5p8dy5gSVJRdfTtTZJeCGxqDEkZ8SSkr6GtpccUFaAz/xoC890OScrsNimmb2NOy99q7Y35FEJJUhEPGgozSdKFHjRIypj1ILmQjiWbmGLMt0OHEbjM7ZCkTG+TQnIx3b2vqrU35gBLklQcXfkPEGIXPuFJUjZtT65/HhcvGW+KsdoOFY4nxLMAl4GkrJtCDH+ku3fPWnpTDrAkSaMTY6CzcDJwOlBnEEnZXR+G17J84FRDlFlHzNGV/zHEUzy+kaRnrU8Mf2TeLU218oa8B5YkaRQHazHQnf8JhGOMIUn/XTfyKeY0fccQZXDxkvEs7z8LQrsxJGmN7iUN/0d74x3V/kYcYEmSRqYj5kjyp0N4rzEk6XkGSeJbmd38F1OU0Lk3bcCEut8Rw2uNIUnrEm+jPnkdMxv/U83vwgGWJGn4OmKOpO9MiO82hiSt0YOEur1onX6PKUpg3q2bkg78CeLuxpCkIbmF+oHXMXOXB6r1DTjAkiQNT0fPOJLkN8BsY0jSOv2TSXX7cuD0VaYo6nZoc5LkL8DOxpCkYbmRVf37c9iuj1Xji/cmh5Kkobt4yXhC0onDK0kaileybPB7Ziii7t6XkSR/w+GVJI3Ebkyon09Hz7hqfPEOsCRJQ3PWjZNZNnAxgUOMIUlDFOKxdBUON0QRdBQaiMnfgB2NIUkjFNmXXFKVT8z1EkJJ0hAOGm5bn2T174F9jCFJw7aMNOxFe2OfKUa6HeppJiR/IbClMSSpCEL8DK3N36qql+xSkySt0/wbpjE44Y/AK40hSSPe676OwfQ1tLesNsYwdeT3IscfiWxsDEkqmkiMhzKn+fxqecFeQihJWsdBw23rMzjhUhxeSdJoDxP2IiRfN8Rwt0N9ryXhModXklR0gRB+SXfvq6rnBUuStCYXLprEqsl/AF5nDEkqikjkEOY0XWSKIejM70fgQmCKMSSpZO4nTV9Je8u/K/2FOsCSJL3YxUvGs3zgIuAAY0hSEUUeIKa7095yvzHWobv3AGK4EJhgDEkqucWsrHsth09/spJfpJcQSpKeryPmWDZwDg6vJKn4ApuRJD83xDp0F/YhhgtweCVJ5bIL4wfOY26s6BmRAyxJ0v/MjQlJ4SwCbcaQpJJ5G135I82wBvP6doN4ITDZGJJURoGD2Lnvc5X9EiVJAogxMK/wMyJHG0OSSu4J6gZ24e273G2KZ3QUGgjxcgKbGUOSxkRKEt/C7Oa/VOKL8wwsSdLTuvMnO7ySpLJZn/66M4jRXygDzF+yAyFe5vBKksZUQhrOoaNvq8p8cZIkdRdOgvApQ0hSGQXeyLz8e90GLdmawYG/ENjSbwpJGnObkks7OW1RfaW9MAdYkpR1nfkTiPFEQ0jSGIjhu5X6m+6y6FiyCbH/z8D2fjNIUqVsm3g1G036WqW9LAdYkpRlXfkjCXzLEJI0ZtYnSX+YyXc+/4ZpJAN/gtDkt4EkVZpwAp352RX1ilwokpRRHfl9SfgTMN4YkjTWe+VhJq2Nv8vM+z3rxslMGvcnYB8XviRV7MbpcXK5GcyaflslvBrPwJKkLOroaSbHfBxeSVJliPFHdPRMycR7PW1RPZPGXYDDK0mq9I3TNAYHzmXhwrpKeDUOsCQpa7p7tyBJLiaygTEkqWJsS5J8ORPvdOPJPwIOcJFLUlV4JY9s8ZlKeCFeQihJWXLhokmsmnwZ8EpjSFLFGYB0b9pabqjZd9iV/xLwFRe1JFWVflJeTXvTdWP5IjwDS5KyoiPmWDX5tzi8kqRKVQfJj4mxNn/J3Nn7TmCui1mSqk49CWdx5h0TxvJFOMCSpKxICqcAbzOEJFW01zCv8K6ae1fdva8jhF/hFSCSVK2aWW/liWP5AtyASFIWdOZPIPBtQ0hSVbiX5asbOGK3ZTXxbrr6Ggnp1d57UZKqXkqa7Et7w5Vj8cU9A0uSal13oY3AyYaQpKqxFRPHfaom3sl5fRtDeqHDK0mqCQnJ4K/G6qm5DrAkqZZ19bySGM9yfS9JVSbwKTp6tq3q99Bx90TGp78DdnSBSlLNbKB2IEm+NhZf2QMaSapVCxZvBkk3MNEYklR1JpFLqvfs2bkxIVl2HpFXuyglqeZ8mO7eV5X7izrAkqRadNqievrrOoCtjCFJVSryzrE4QCiKnQvfgfh2F6Ik1aSEGH5CR8yV94tKkmrPhlNOAV5nCEmqduGbVfeSOwuHAR932UlSTduTJP+hsm4RbS5JNaa7993EcJYhJKlGJPFNzG7+S1W81nl9u5GmVwOTXHCSVPOeJMRGWpvvK8vm0N6SVEO6evYghtMMIUk1JIZvEGPl/+K5o2dD0nQeDq8kKSvWI4avl+uLOcCSpFoxL7+RN22XpBoU2YuuvraKfo1zY0JIzgVe7gKTpEw5ko78vuX4Qg6wJKkWLFxYR0oXsL0xJKkGhfj/WLiwrmJf3875bxJ4iwtKkrK3hSLhx+XYRjnAkqRa8PAW3wb2M4Qk1aydeHTzwyvylXX3zoJwgotIkjJrZx7Z4thSfxFv4i5J1a47fyiRcw0hSTXvVja6v4n99x+omFfU1dMCyT+AKS4eScq0J0jYgdlNj5TqC3gGliRVs3l9uxH5uSEkKRN25NHN2yvm1SwoTIXQicMrSRKszyCfK+UXcIAlSdXqrBsnkw7+Bp/2JEnZEeMXmRvHfh9+bkzoj+dBaHKhSJIACBzHBYu3KdWnd4AlSdVq8rifeuAgSZk7Omhil77ZY/4yWgpfAt7m8pAkPccEBupOLNkW0L6SVIW6e99BDOcbQpIyqYebG3dlbkjH5Kt35vcjcAmQc1FIkl5gkCS3C7N3yhf7E3sGliRVm3n5nYjhF4aQpMxqoaVw4Jh85Y4lmxA4D4dXkqQ1y5EOzC3FJ3aAJUnV5OIl40k5H2+YK0nZFvhk2b9mjIFk4AxgCxeAJGkdG6k5dOT3KvZndYAlSdVk+cB3gD0MIUmZtx8dfXuX9St2950AHGx6SdJLCCR8rfifVJJUHbp63w5hnutu1fj+zuMQbydyO4F/E3kE4uOE8BgxeZxk8DFi7nFCWP2ivxrjONJ0MiQTSQY3hrAJhE2JbExgI2LcnMB0YFv8JZ5qw3m0NR1Wlq/U3fcKYnolMM7sEgDLgSef88/ja/yoSELC+kQmAhOAacCG5lMmpOxHe9PlRdtLtKgkVYGOnm1Jkhvc4VENuQ9YBCwixD7I3c7gwG20tzxa+p+nuydSt3wn0thATBsIoQnYGWjBwZaqywBpugPtLf8u6Vc5Z8l6TOi/HsIOJldGrAJuIVAgDXcQuJeQ3g3cx2Dubjb5zwPsv//AiD/7aYvq2WDqppBuTi5uTsoWJMmOxLgjsCMwHZjkYlDVi/yFOU1vKtanc4BV6bqXbE3snwmhkcBmBpFGZTVpWMCcxs6qetULF9bxyOZ/BfZxEapKLQOugngtsIhQv4jW6fdU3Ks8Z8l6jB94FfAaAq8GXgWs5+JThR8cfJc5TSeUdn80/xsi7zS2atS/gWuJ8VoCi8nV99G/4520h8GxPQ7sfRlpsjvEPYA9CGEPiNu4uFR90j1pa7mhGJ/JAVal6uqdDnwbwiEuJ6nIQtyX1uYrqub1dvaeSAgnueBUTXsqBG4g5c8k4S8MDl5Fe8vqqnsXHTEHhWaSeACEg4H/A+pcvKowT5Km25fs7MWuwnshnmFm1YgVBK6BcAVpvIZxA9cyc5cHqme71LcVuXRf4HXE+DoITS5SVYGiXe7uYKQSzSu8njReBEw0hlQCIc6mtXl+deyo9OxOkvwT7zmiyvcUgd8R+T1p3SW0T3+o5t7huTdtwPj6txA4hBjeAnGai10VIYZTmNP48eLvk97SRDp4LTDZyKpSyyFeDuEKQvgbg4PXVuUvVNZmweLN6K97C5G3EXgzMNVFrgo0QIg70tp816gP42xZYboKu0K82h0FqWQe4qkJ23LU9isr/pV29IwjSa4BdnOxqUKtIPJ7AueTTrmY9m1WZOadL1xYx2NbvI7Iu4ixHS811NhaTVK/DbN3fLBon/HiJeNZPnANsKt5VUVS4F+E8BcCf2ZC7ioOnL4qE++8o2ccdWFf0jATmANs6reDKkf8AW3NHxvtZ3GAVUkWFKbSH68BGo0hlWrdGY9kTvNZVfFaO3u/SghfdKGpwgwS+SMhnE89C5jZ+FTmi1y4aBKrJ7WShvcQ2A9vBK8xEd5HW+Mvi7cNKpxMiJ+2q6rACuAqCBdRTyczG/+T+SIdMQe3vJokfTfwLjwzS2NvGQkvY3bTI6Pa0tmxYg6qA92FLmC2MaSS7dxfSmvDGwkhVvxL7SrMgPh3vN+OKsd9hPALyJ1ekTdgrxTdvS8jhiOBI4GXG0Rl9E3amj5XnG1QzyshuQrImVUVuk/3OMQLgHmkUy7J1BnAw3XWjZOZNP4dEI8BZhhEY/hz+0XaGr82qs9gxErZ4c1/jsjXDSGVzJOk6S4lf9R4MTx92cZ1QIuLTWMsApdD+BmPLJ3P0TP6TTJEc2NCS9/BJOkJxPBag6j0P63xs8xpPtltkGrYCuBSYuxkwvIuDp6x3CTD1JHfi4QPAofhLWtUfg+STtluNANnB1iVoLuwPzH+BX/LJZVQOIa2xlOr4qV62YbG3ioCvyLkfsDsnfLmGO12vvdVxHACMAsvL1RprCbEnYpxg1y3QaowKYSFwK8Yv3SeQ6siOa9vY+oHjycJxxHZwCAqow/S1vTzER/R2W+sd2qXbE0cuB7YxBhSiQQuZ3bj/lVx6WBH/tUk/A0H2hoby4DTqQ/f8R4iJTB/yQ4MDnwcOAqYZBAVySAhHkZr829Hv1/a+ypiuNJtkCrAHcCvCPHXRRnMas0WFKbSz4cgfgLY3CAqg+tpa9pr5Id1GjunLapno8kLgX2MIZXMcoi709a8pOJfacfdE0mW3gA0uNhUZk9A/DGrc6dwaMPD5iix8/o2ZtzgpyEch4Msjc5iSD9AW8s/R/2ZzrxjAlNX3oAPE9LYSSH8EdKfcHPTH5kbUpOUcx902YchfhbY0CAqqRD3orX5+hH9VeuNoc7CTwjxWENIJfVJ2pq+VxWvtCv/PeDjLjKV0ZOE8G0G639E+w5PmKPcBww9m5MknwM+CEwwiIZoBZG/kAs/Y1bDn4p2dnFX/tvACebVGBzNPg7pzwl1p9K60+32GEPn3rQBE8Z9hhg/Ckw0iEojnkpb8zEjWlsYb8wOVN8FnGcIqZT7Q/EaBpteQ3sYrPjX2t27JzFcg5dtqDz6iZxKf3KSZ1xVws//kq2J/d+AcJj7ZlqLXmAhIfyZcUsvKfp9gLx8XWPj3xBPoT75BTMbnzJHBeno24pcejKRQ90uqQSeYPnqrThit2XDPryz3VisEPK7kPB3fPKDVEqrSeJezG6+ueJf6dyYsHPhKuBVLjaVwUUQP1EVl9VmTXffK2Dwx8SwtzEy7z4CVwKXMJj+saRP0PXydZXfYmI4mUeXdvh020rfLhX2J8YfA83GUFEFjqK16VfD/2sqrwWFqfTHa/D+AlKJV4rhRFob/19VvNauwjEQf+pCU2l/JuKVwKdobf6HMSpYR8yRFI4Bvg5MNUhm3EfgMmK4jFy8jFlNd5btK3fmv0Pgky4ClcHNhPAVFjfM8/5WVeS0RfVsPOnjxPBlvG+jiucq2ppeO+zdWbuVUYyB7kIn0GoMqaRu4pFlM6rit3oLFm/GQF3eRxirdNseHoD4adqazq6KJ3Hqad29LyOGXwH7GaMmPQX8kxgvIYZLmNN4/Zj8fM7r2400XQTUuUhUQj0QTuLmhi4HV1Wso2dHkuRX+AAyFUuattDe0jucv+IAq5y68p8FvmEIqaQGILyatsZF1XGQmj+HyGEuNpVAhHAOSfw4s5seMUc1LsEY6O77KMSTgfEGqWrLgL8/O7DqbbxhzA/kn/7F6l+B17l4VCL3EjiJwcYzquJ+pBraemNe4QNEvo9nY2n0vkdb07DOAHaAVbaD1ML+xPhn/A2XVOpD9m8wp+nzVfFa5xVeTxovcV2s4gv/gsEP0dbyT1vUwj5E757EMA94mTGqxgoIVxPjZSTxMjZ8YBH77z9QUa+wq/BeiGe4qFQCTxA4mcEpp9C+zQpz1KCOnmaS3LkQdzeGRr67ysNMrNuaA6evGvpfUTl2PLcghuuALYwhlVQfT03YnaO2X1nxr/TiJeNZPvAvvB+eimspxC+x0QM/qriDZY3OeX0bMy79DXCAMSpSP3ANIVxGGi9jct3fh7NDPgYHnxuSJAVgExediiglhF8ymPs87dMfMkeNO/OOCUxd+QPgg8bQiEUOZk7TRUP9cM8GKrXTFtUDHTi8kkq/05Qm76+K4RXAisFP4fBKRRX+RkjeQ+tOt9uiBh3a8DAd8S0khW8CJxikAna54SbgUoiXksYraG9ZWjWvPkm+gcMrFdf1pHyY9sa/myIjnt7nPprOwhWEeCowxSga/u4rbcBFQ/9wlVZ3/iNEfmgIqeQrvxNobfpudawXel9GDD3AZBeciqCfyNeJjV/1HiMZ0dV7HIQfAokxyuo+AlcClzCY/J72hnur8l109O1Nkv7d7x8VaQfscYif5ubGM7xBe5a3S32NkC4AdjKGhr0OSQc3o71l9VA+2jOwSi3l7Y4JpRIfvMNnaW36XvWsF8JPCA6vVBQ3kMQjmN18sykypK35J3Tl7wfOASYYpFT71DwMLAQuIam7lFnTb6v69zQ3JuTyPyIGh1cqhosIuWNonX6PKbK+XWoocO5Nr2L8uE6IbzCIhi5OIwkHABcP5aMdYJVaLnybGCcS2YFA/dCWIdPw7DhpKP4K4VNV88RBgHm9byTlIBedRmkA4sk8svwrHD2j3xxZPFho6qYj/zAJFwJTDVIUy4G/QbgUBi9hcfONNXdGyc75Y4hhbxe1Ruk+Ih9mTtM8U+hZh+36GKcteisbTf4x3hdLwxFCG0McYDkkyaKO29anf1npfvNWn5tKrr50w9GYTiGN9SX7/Lk4GRhXugWQTCIt5ePQ04kkoXS/kY9hAjGdWMIV2HhCeInH8sZ7iemVtLXcUFU/e3Njws6F64HdXBFpFG6B9AifMCgAugv7EOMfcIg1EgMEriWNlxLDJUyp+0dF33h9tBYs3oz++gLEaS56jXw/kC5yfIjZTY8YQ2vVlf8E8B3nDRqiR3lk2eZD+aWs31CSVLaNuY8s16gPHH5H3cojmbXH48bQszrye5HjL0Q2MMZLuh24hBguYfXqSzhs18cy8867878mcoTfAhqhJ4nxI8xpPssUGpLO3iMI4Qy86ktD8xbamv70Uh/kAEuSyuHCRZNYNfkWYCtjaAQGgM/Q2vh9Qojm0It0976KGP6CT4F64a7u3RAvhXApIb2U1ub7MpmhqzAD4jXu+2uEriLH4cxqutMUGpbOwkxCPB/v16iX3l6fQVvj+1/yowwlSeXYgPeeSAgnGUIj8BAxfRdzWi41hdZpXuH1pPFiKOVl6hVvKfAPYnz6LKs5jdc79AU685cSeL0/JBqmSAzfZuP7vsD++w+YQyPSXdifGH+Hv2DRugQeZsP7t3ipdY0DLEkq+UHlrZuS9i8B1jOGhrcxj1dSl7yDmY3/MYaGpKv37RC6gFxG3vEK4CoiV5HEK3l4+eU+2OAFOvveSkgvNoSG6VEiRzKn6SJTaNQ68vuScDEwyRha+35veD2tjQvX+SFWkqQS686fSuRoQ2iYTueRZR/2YFzD1lX4EMSf1ei7GyTwLwiXQHoJT068kqO2X+lCX9tBY8yRFG4AdjGGhuF60nQW7S3/NoWKZl7vG0nD7/ByQq1N5BvMafr8uj7EAZYklXRjfUsT6eBNeANLDd1qQnw/rc1nm0Ij1pmfS+DLNbJHm4fw9JMC61Zc7kMMhvN9UDiKEH9pCA3j562D8cuP4uAZy22houvKvxlYQLYvddfaLaKt6RXr+gAHWJJU2oPIiwgcZAgN0VMkoZ3ZjX80hUa//il8nxA/Vn3HzzxAwhXAJQymf/QskBHquHsiybI+iNsYQ0OQEjmRtsZveN84lVRXoR3ib4DEGHrReihhU2Y3PbK2D/CMAEkq2cFjfj+HVxq6cDdJeiCzm262hYqip+GT7Ny3BcR3VPa3Po+R8ldCvBRylzKnoeDCK0bXpz4KweGVhmIFIR5GW/N8U6jk2ho76M5vQ+Q7xtALJKThDUDH2ncZJEml0ZW/HHidITSEI81/Uc9B3qxdRdfRM44k+T1wQAW9qpUQrnp6YJVcwuBO19MeBl1YRXTuTRswvv5WYENj6CU8SprMpL3hSlOorDrzPyTwEUPo+bvE4Re0Nn5gbf/ZM7AkqTQb5f1weKWhuYSVuVbapj9pChVde8tqFhRm0x8vB/YYo1fhjdfLbXz9iTi80ku7nYS30tZwiylUdrHx44TCdsDBxtD/vi/iG9f1nz0DS5JKoSu/ENjPEHoJv2Kj+z/A/vsPmEIltaCwJf3xauBlZfqKBeBSQryUZNVCb7xeRh2F7UliHm+SrHVbTP3AG5m5ywOm0Nitr3qmkCT/BJqNoWeloZH2xr41/SfPwJKkYuvufR3R4ZVe0s+5ufFDzG1KTaGSm9n4H+bl38QgCwlsWfTPH/kPIVxKTC8h5i6lveFeo4+RJH4Jh1dat0Wk6ZuZucujptCYam9ZSkdhNkm8BljPIHpmO/ZGYI0DLM/AkqRi68pfBuxvCK1VCL9gccPRzA0Or1Re8/I7FWmItRT4BzFeQgyXMKfxep9cVgE6erYlSZYA44yhNW9/4pWsqD+Iw71sXRWku3AIMV6A8wkBEBfQ1vz2Na7CjCNJRdTZ83+E5ApDaB0b5VNpbTrWg32Nma7e6RDmAy3D+FsriVwNXEpILyVtXuSN1yty2f4MwocMobX4K8tXv40jdltmClWc7sI3ifEzhhDwKK2NG69pX9kBliQV9eChcAnENxhCaxZ/RmvTcQ6vNObOunEyk8Z9H3gPUL+Gj1hJ4J9ELicJlzMw+e+0b7PCcJV88Ne7BTHcDkwwhnjxUd/fqQtvZmbjU8ZQRVq4sI5HNv8b8CpjiIQGZjfd8uJVmSSpSAcPhX2I0cdQa21+QmvjRxxeqaJ09GxLkns7Me5IYIDAvRCv5cmJ1/ikwCrT1XsKhOMNoTW4gVX9b+CwXR8zhSra/CU7MDhwAzDVGBkX4hG0Np/9oj+2jCQVSWf+zwTeaAi9eCPMacxuPMbhlaSSmHfrpqT9dwCTjKEXbID+RW7F/j4JVFWjK/8B4HRDZN5PaGv68Av/MLGLJBVBR/7VDq+0ZnEBg41eNiiphKuZgU/g8Eovdgfp4FsdXqmqtDX9HMIFhsi8V67pDx1gSVIxJJxgBL1IiNewvP8wb3YtqWQ6ejYkxmMNoedvf3iYNLyV9pb7jaGqkw4eQ8BLXrNtNzrunvjiQy5J0uh0974MmGkIPV+8jTDuYJ/2JKmkQvJRvF+Mnm8Zg8lBtDf2mUJVqb3lflI+Z4hMq4elu7/wDx1gSdJoxfBRIGcIPcdDwFuZveODppBUMucsWY+EjxpCz90rgfBe2huuMYWqWk/jz4GrDJFhufiiywgdYEnSaCwoTAXeZwg9x3JID6ateYkpJJXU+P5jiGxgCD0r8AXaGjsMoao3N6SQHg2sNkZmV2gOsCSpqAbie4D1DaFnpMSkjbaWf5pCUkktXFhHSI4zhP4nnkNr0zfsoJrR1tJD5EeGyOoqjb1f+EcOsCRppObGhBiPN4SeFcKXmdPwB0NIKrlHNp8JcRtD6OntT7yGpyZ+wBCqOav7vwY8YohMejnzb5j23D9wgCVJI9XSdzCEHQwhACK/Z3HD1w0hqSwCHzGCnvEoSXgHR22/0hSqOYft+hiEkwyRUen4xuf+qwMsSRrxwYNnX+lZd5HjyKfv1yBJJdbV00LkdYYQT1+6fjizmu40hWrWI0t/BtxiiCyu4ZKm5/6rAyxJGomO/C7AfoYQsJKUVmY3eXq7pDJJPgoEO4gQvual66p5R8/oJ/I5Q2RxHRebn7f1s4gkjeTYgU948KBntqzH0d50nR0klcW5N20AHGYIAVcw2PAVMygT2hrnAzcZImMinoElSUU4eHiHIQThDNoaf2kHSWUzof69wGRDZN4ThHgE7WHQFMrGLleIxPD/DJG15e4AS5JGZ1zdu4CJhsi8O0gHP2YGSWUzNyZEjjWEgGNobb7LDMqUtoYuYLEhMmU7Llw06b//4gBLkoYrhKOMkHkpIb6H9palppBUNrvk3wq83BBZ3w/hLNqafmMIZXAfPBLi1wyRKQmrJjb891/qRvWp5uU3ImU2hAMh7khgcyBnY0lrFRkA7oF4Bm3NP6m61z+vd2dSZrggM/99/H3amq8whKTyrnvCR4yQefexsv9jZlBmLW7qZOfC13GYnx0haQJugJEOsBYurOPhzT5JyueB9SD+d4dekoZiEwg/pjM/wJym06rqlQ8m7yO4ssu4AnHKiWaQVFYdhe0hvskQmXc0h+36mBmUWXNDSlf+J8B3jZERaXz2PljDv4Rwbkx4dPNfEcI3gfWsKWkU3l5dBw894wjRJz9l2wCk76F9mxWmkFRWIT0cn36bdb+hrelCMyjzcit/CXgbh6xIwrOXEA5/gLVz4WtEH90rqRgrI+6rro1l7hBgExdclg8g+RZtLf80hKSyijEQwrsNkWkPsTr5qBkkYNYejxPDWYbIyjaQbf93+DgcXfmDgc9YUFKRpgEXVNnK05u3Z3vrmWdi3Ul2kFR2nYVXAdMNkeVNUPgMhzY8bAjpv4cR4Ud4E6OMrP/Y5r//d+gDrI6eHYGz8dRlScXxFE+O/3PVvNqOvq0gvtnFlmFJ8gkOnL7KEJLKv/6Jnn2VbVfR1vArM0jP0dZQAP5uiAwIbE5HzzgY6gCr4+6JJEkHsL71JBVHXMBR26+snhVneiQ+ZTXD3678jtmNfzSEpLLr6BkHod0QmTVImn6Y4BNkpBfvn/NrI2RCQi5s8fT/GdKHL/0psIfdJBVvg5N0VtkG8kgXWmatJsQTzCBpjLaXbwM2MkRWxR/T3vIvO0hrMDjut4AP1snEss5tA0MZYHX2Hgu8x2KSiqjKLh/s2R3YycWW1YPH8H3ampcYQtIYrYO8fDCzy57HSMJXDSGtRfsOT0D4nSEyIEmHMMDq6NubEL5nLUnFVW2XD4ZWl1lWv1V5gMH6bxhC0piYl98I4oGGyOo2KH6V2U2PGEJa189J8DLCTAhbw7oGWB09G5KkvwXGG0tScdc/VXf5oAOszH6v8pmnf7snSWMg5V3AOENk0h1Mqv+pGaSX8OhTlxB4zBC1Lq7jHlhzY0KSnAdsZyhJRVZdlw/Ou6UJQpOLLZNu5ObGs80gaQwdboKsCp/1ybfSEBw9o5/IHwxR8zaDtQ2wWgr/D/Bx8ZJKoMouHxwcaHOZZfVblZOYG1JDSBoT8/PbAXsbIpOup7Wh0wzSUPfZwgVGqHmbwpoGWJ35txH4rH0klUTVXT7o/a8yqoeeRneGJI2dAdqAYIgs7ivFLxFCNIQ0RHHwD8BKQ9S0NZyBNT+/HYFfu7GUVCLVdflg9y0vB3ZzsWXx4CHM9ewrSWO7HuLtRsikf9La/HszSMPQ3rKUyKWGqGHx6TOw6p79gzPvmMDgym5gQ+tIKtGap7ouH0wH5hCc52dQD4sb5pmhgly8ZDxL043JBR8so4xsLvs3AV5tiAxK4olGkEYghL9APMgQtbp82ZiOmPvfAGvqyp8Be1pGUulWPF4+qGpY7vGrnn01hjp6xpGEAyAcAGF/iC9n+cB6JIAX1CgrYuL1ENn0D2Y3/8UM0gik8bK13OFbtSHH+Js3fnqA1VX4EMT32ERSCT1RXZcP9r6MyAwXW+aOGvMsbvLGuWOho2cKueRoIh8HtnpmedhF2eTwKqvboJNtII3QnMab6So8QHj6XkmqQauSjRK6CjMgnmINSSX266q6fDCGgz2EyOKxA9/07Ksx0N37OpJkMZHv8OzwSpIypcDNTb8zgzRCIURC+KshankZJ9MSYjwZ8J4SkkrpWlbWVdc9HSJvdLFlbaPIw0yu/60hyqyr8CliWAhsZwxJGd4GnewvUKRR78B7I/eaXk/GaQnBS2QklWYLAhSAT/LUhNdx+PQnq+aVn7aonsD+LsKMScMvOXD6KkOUUWf+6xC/Bd61QlKm3ctgep4ZpFHvzF1tgxoWwrQ6Qng7MW0nhu0Iz3kq4Zo9SWBwjF7uaiLLxu5QPDxOMkY340jjSogrxuRrJ0QIj49h9+VExuiAMg6SxLEcuixlMPSPzXIP/YRk6Yj//mAaWTb+vqq6ZPC5Np70aiJT3Upka4+HyKlmKKPO3mMJfM4QkhR+RnvLajtIo3Rzc56dC08C6xmjFvfW47Q6WhsXAgutIUn/XTnyRu9+lbmDhz/S3niHHcqko29vQnqKISSJVSR1PzeDVARzQ0p3/gYi+xqjJvfXp3nKviS9aN0YvP9V1sT4MyOUycVLxpOkZwL1xpAkzmf2jg+aQSrWPh3XGqFmD9LWd4AlSc917k0bgPcGzJh/Exv/YIYyWTHwYaDZEJIEhOQnRpCKKIZrjFCjkugAS5KeZ8K4NwA5Q2Tp4IFTaQ+DhiiDc5asR/S+V5L0jOtpbfBsEamY4uANRqjVZRsmOcCSpOetGOObjJCtJQ7RJz+Vy/j+44GNDCFJQIxnGEEqtuY7AJ8qXYtCnOAAS5Kez/tfZcs/aW2+ywxlMP+GaYTkE4aQJABWsnrgN2aQiuzps+pvNUQNSvEMLEl6VlfvdGA7Q2RJ7LBBuXY6Jn4C4jRDSBIA8zhs18fMIJVEwQQ1KDjAkqT/8ZG72Vviaew2QzkO0/IbEePxhpCk/x6IxTONIJVsD+8WI9QkB1iS9KwkeaURMnXwcBXtLf82RBmknACsZwhJAuA+BpsWmkEq1T4e/zFCTZroAEuS/ivGVxkhU3s3Xj5YDuf1bQwcZwhJetb5Pv1WKuU+fXjACDXJm7hLEgALClOBJkNkRkpd8PLBcqhPPwtMNYQk/Vfw6bdSSQ3eb4NaFHMOsCQJYIAZQM4QmfEPZjZ6enmpdfRsTuAYQ0jSs26lrXGRGaQSyiWegVWTQuIAS5IA0vhqI2RI5C9GKIMk+RwwyRCS9N/tTzzfCFKJreh/yAg1yTOwJOkZ3sA9UwcQySVGKLHu3i2ADxhCkp4jYb4RpBJbsssTQGqI2luDOsCSpKc5wMqOpTz21D/NUGKRE4GJhpCkZ93F7KYbzCCV2NyQAk8Zoub2LR1gSRIdhe0JbGaIzGz8LufoGf2GKOXPVM+2EN5rCEl63gboAkKIdpDK4nET1BwvIZQkQurZV5la3vFSI5R69yJ3IjDeEJL03O1PssAIUtl+4B6zQa0tUoIDLEkicYCVreXtAKuUuntfRoxHGkKSnnfk9Tgb3vc3O0jlEh+3Qa0tUgYcYElSiLsZITMepLVhsRlKuXMRTgDqDSFJz9vX+Av77z9gCKlsP3SP26DWFin9DrAkCZpMkBGRK7z/SAktWLwZ8D5DSNKLNkB/soFURiF6CWHtrUc9A0tSxs3LbwRsbojMbPgW2aCE+us+hk8elKQXyw3+2QhSOXf5vIl77QkOsCRl3GDabIQsHUBwvRFKpOO29SF8yBCS9CKLefsud5tBKqvHTVBzvIRQUtYlDrCyZGXuBiOUSK7/IxCnGUKSXiAGHx4ild9SE9ScQQdYkrItRO9/lR13cmjDw2YogQsXTSLGjxpCktboryaQyi1uaIOas9oBlqSMb9uCZ2Blx3UmKNXuxKQPApsYQpJeJCUXrzSDVGYh2cwItXbcxlN1VpCU7Y0bDrCys9Hz/lelcNqiemL4uCEkaY07Gjcxu/ERO0jl3u+LDrBq77htmWdgScquc5asB2xpiMxs9DwDqxQ2nHQksK0hJGlN0sttII2JTU1Qc5Y6wJKUXeMGWoBgiIyoD4uNUGQdMUcInzaEJK1FSLx8UBob3tqg5tanwTOwJGVYLnr5YHYs55CG+8xQ7B2J/BxguiEkaW3Sa20gjQkvIay51alnYEnK9tH3y22QGXcQQjRDEcUYCOGzhpCktbqf1ua7zCCVWUfPFGCyIWpMwlMOsCRl+AA8bGOErCxrbjNCkXUVDgJ2M4QkrdUiE0hjIFfv/a9qc3/epxCqjBYUpjKQeC1yrVkRHubw6U9W6VrQAVZmhNttUOykePaVJK17PekASxoLg4Ob4ak6NbhOTR91gKXS6uiZQi4cS+SD9MeXw6A3zK41E0jpyv+F+oEjmbnLA1X26rd2AWZEEh1gFVNnfj9gH0NI0jqPtnpsII2BHNvjjSNqT5o87FxSpdNV2JUk/IsYToawAz7trWZHA8CbWV13elW96hgDsJWLLyscYBX3mIzPGUGSXsLgYK8RpDGQspMRanKl+qgDLJVGR34XiFc+M7hSNg5oD6a792VV83o7b90YmOiCy8r3Z50DrGKZ17cb8EZDSNI69fPYiiVmkMbkuMQnJNfmcnWApRK4cNEkEhYAU42RsVVKDI3V83JXe/ZVlgxMvNMIRZKmn8YzaiXppSzh6Bn9ZpDGhAOsmjzaDA6wVAIrJ30S2N4QWRRzVfNSc7ltXV6Z8STt26wwQxFcsHgbYI4hJOmldom4wwjSmPESwlo0sd4Blops3q2bEsIJhsiokHuoal5rmnoD9+x41ARFMpD7JFBvCEl6qX0i7jSCNAYWLN4MWN8QNbdOfYwDp69ygKXiigNfA9YzREYlafUMsAgOsLKzwXvECEVw7k0bQHifISRpSBufu2wgjYHViWdf1aLIvfD008Ok4ujoaSbG9xgiw+qWPVg9+5UOsDK0wXOAVQwT6j8ETDGEJA1lPyP9txGkMZAEB1i1yQGWir2ySL4H1Bkis5Zz8IzlVfNqY9zcRZaVgwgvIRy1i5eMJ/IRQ0jSkN1nAmlMDkq9gXsNr1MdYKk4OvveCrzZEJn2YFW92iR6bXxWeAbW6C0bPBTYwhCSNESD8WEjSGOx3xf3MkJNLtd7wAGWiqEj5gjptwyReQ9V1auNYQMXWVY2eHgQMbodhkCInzSEJA1D3Xi3PdJY7LMQZhiiBoXESwhVrG+mwvuBnQ2R+W+Eh6rsBXsGVma+NYOXEI5GV+EgoMUQkjT0w2geevwxM0hl1tm3E8RphqjF/Xn+Aw6wNFodPVMIzDWEID5YZS/Yp2Vm5zDiKSOMaofBs68kaXiWcvSMfjNIZZZL9zZCze7P3wkOsDTqlUTyOcCbYQuI1XMG1pl3TAAmuMwyIkkHjDBCXYUZwH6GkKRhHWgtN4I0Fj974ZVGqFH13AEOsDQa3Uu2JvIxQ+iZKUH1DLA2XOrlg5kSBm0w0nTx00aQpOGuO1lpBGlMeAZWbXqQmY1PgQMsjcrAN4FJdtAzB7rVM8AarHOAlSUxeAbWSHQUticyyxCSNOwNj2dgSeV28ZLxwK6GqEm3//f/OMDSyHT17EHkXYbQ//bVqugeWAPJNBdYpr43HWCNRBI/AdQZQpKGvQJdZQOpzJav3h0Yb4iadMeza1dbaIQb5lP8/tHzhFz1nIGVG/QG7tn65vQSwuHq6NkQOMoQkiSpOnb3wquNUKuiZ2BpNAc2+X2B1xlCz1MX762eF+sZWNnaoUl9EtTwdwKPAyYbQpJGdLDlMZZU9h873mSEmt0vvfXZozhraPjH/rQZQc9fqXAdMxv/U0UbOM/AytY3qGdgDcfFS8ZDOM4QkjSKvWVJ5XPmHRMg7GuIGjWY9Lpy1SgO/uO1RtBzPEVMP1BVrzhE7+uTqXVW6j2whmP5wDsJbGYISRrxhidnA6mMpq7cFx8uVrMrVFYnhf/+iwdxGr45zWfRkb+LwD4kYWRnssQ4Bagf9t8LIYG4/gi/9ScCE0b4rqcRCCP4muMY+WU4Uwkj+BmN5KAsZxitAC4h5D5Ga9Pt1bUaDDmI/ixnRuKBxPB82ASSNBrBA2mpvPv2byG4b1+j69N7OHz6k//9NwdYGpn2psuByw1RYy5cNIknxw3t6R1LVy/l6BlVem+hNGEE80hVqSRMMMIQdfe+jsgMQ0jSqEwxgVRGIb7FCLUq9j733xxgSfqfg2csB5ZnYCvn9CpT0ok2GOo+QjjeCJI0alNNIJXJ/Px2DNJoiJr1vAGW98CSlD3B068yJXoG1pB0974MOMQQkjRq455+IIakkhvgzUaoafnn/osDLEnZE4PrvmwtcC/lGFImjsMzsyWpOPoHNzKCVAYhePlgTUtveu6/eRAnKYtH6t7UO1t7Nh5EvJQLF02C8D5DSFKRDKSbG0EqsXOWrAfRM7BqeE1Kup4DLEkZF133ZYwDrJeyasqRwIaGkKSi2cIEUomNH2wFvNdp7crTvs2K5/6BB3GSsid4E/dsLW8HWOsUY4D0I4aQpKLyDCyp9Pt4hxmhppfvDS/8IwdYkjK4MkwdYGVJZBMjrENX4Y0QmgwhSUXd2djaBlIJLShsCXE/Q9T0TrwDLEmC4D2wssWDiHX+OITjjSBJRfdyE0glNBDfBbhPX9uuf+EfOMCSlEFx0AaZ8jITrEVX73SIPr1Hkoq+q8EORpBK+jN2qBFqWsqK+n+98A8dYEnK4gZvmREyZTLz8t4Ha40/C+Ej7gtIUkl4BpZUKl19jcCehqhpizl8+pMv/EN3WiVlTwgOsLImRs/CeqGO29Yn8B5DSFJJbM45S9Yzg1QKg4fboOZ33v++pj91gCUpe1IHWNlb5uxkhBfIrToKmGoISSqJwMTBXcwgFVlHzzgI7zVEza9Br17THzvAkpTBFWLqACtzy9yn7L1IdOdPkkq7nsUBllRsufAOYAtD1Lq6q9b0pw6wJGWPZ2BlT8AB1nN1FBrAAytJKikHWFIJfq7CR4xQ8+vOB2jd6fY1/ScHWJKyJ3GAlcENYbMRniOk7UaQpFLvb8Q9jCAVUUffa4FXGKLmXb3W1aptJGXw6H2pDTJnJzrunmiG//4IhFlGkKQSi+zJxUvGG0IqkiT9mBEysZ/617V+C1hHUuakA8uNkDn1sHR3MwAdPVOAXQ0hSSU3nhX9noUlFUN378uAmYbIgCS9bK3/yTqSMsgzsDK5MQyecg5AXTOQs4MklUEMrzGCVJSfpQ8DdYaoeQ8yq6lnrbvz9pGUOVPGeQ+sbJphAiA3uJURJKlcB9281gjSKC0oTCXwPkNkQVhICHFt/9UBlqTsOXD6KmDAEJk7ini1DQCC9wKTpLKtcsP+dETPepVGoz9+nMgGhsjCOjNetq7/7ABLUlY9aoLM2ZELFm9jhrDaBpJULnEa3LKXHaQROvemDQh8zBAZMZg6wJKkNbjfBFncKOb2M0K4ywaSVEZJfKMRpBEaN+6znn2VGbfT3nLrOlenNpKUUfeZIIMi+2W+weDAjfggA0kqn5C+xQjSCHT3bkGIHzZEZvbTf/9SH+IAS1JWeQZWNo8iDsh8gvaW1QQW+L0gSeU6KAuvoaNnc0NIw5QmXwQmGSIjcuHil/oQB1iSsikEB1jZtC1dhV0zX2GQk4F+vx0kqSwSktyBZpCGYX5+O0J8vyEyYwUDky9/6ZWpJGVS6gArq2J8W+YbtDctJvBlvxkkqWzbnplGkIazq85XgHGGyIxLaN9mxUt9kAMsSVndKDrAyqoEB1gArU3fAL4JRGNIUokF3kTHbesbQhqCrsIMIocZIlMryYuH8lEOsCRldSXpACurIq9kQWFLQwBtTZ8DZgK3GkOSSmoCuVVtZpBeQkfMEeKpQM4YGdo7D7mLhvKBDrAkZVNIHGBlV8JA2m6GZ7Q1Xcgjy5qBNiLzCTxmFEkqxSFa8IwS6aXkCscS2csQmfJPWqffM6RDOFtJyqT5N0xjcIIH6lkV4jW0Nr/SEGswNybsWtiRwWQHGNyKwFSi96Co7u/3pA7i5/FJTtJYi+R4ObOa7jSFtAYdPZuT5PIQpxkjU2vGTzGn6TtD+dA6a0nKpFl7PE5XfgUw0RhZ3FCGvenqnU5b8xJjvMDckAK3PPOPakFnfi7B4ZVUAQKDHAGcZAppDXLJ94kOrzKnrm7+UD/USwglZdkDJsgwL+VQFnT3vorAFwwhVYwPsHChJxFILzSv941E3mmIzLmBWdNvG+oHO8CSlGV3miDDAu+jI3qDUNWus26cTAxn4Rn3UiXZmoe3OMgM0nNcvGQ8afiRITK5Q949nI92gCUpw+vL4JPXsn4QkeTfbAbVrEnjfgxMN4RUafsf8RgjSM+xYvArQIMhMrlCdIAlSUOTev+jzEs+YAPVpK58K/AeQ0gV6U3M693ZDBLQkd+XGE8wRAYFrqOtoTCsPXerScqsGG4zQua/CQ6m+5aX20G1dTDQtxVwmiGkCj5sS8MnzaDMO/emDUg4C/CWDtncDz9nuH/DAZakLO8/egaWcsTBD5tBNWNuTEjir4GNjCFVtMO4YPE2ZlCmja87E9jWEJk0wGA8f7h/yQGWpAxvNJfeCkRDZN77mX/DNDOoJuxS+DjENxhCqnj19NcdbwZlVlfhGAgzDZFRkUtob7l/uH/NAZak7Dp4xnLgP4bIvKkMTvReWKp+8/p2I/I1Q0hVInAsCwpbGkKZ09HTDPE7hsiwhLNH9tckKds7jz6JUBDjJ7lw0SRDqGqdeccE0vRcYLwxpKoxkf7002ZQ5rZXSfIbwP2u7HqKZasXjOQvOsCSlG0xOMASBDZj1eQPGUJVa+rKk4EWQ0hVtwE6+pkHL0jZsN7KnwK7GiLTzueI3ZaN5C86wJKUbTH1Ru76r095FpaqUnfvQcBHDCFVpQnk4lwzKBO68p8gcpQhMi4kPx/pX3WAJSnbEm42gp6xOaumHGcGVZUFhS2J4UwgGEOqUjG+l+7ePQ2hmtaVfzPwLUNk3k20Nlw78kM3ScqyuuQGI+g5Ps95fRubQVVhbkzoj78GNjGGVNUSYvCG1qpdXX2NEM4HcsbIuBhPG93KUpKybGbjf4g8YAg9s1Wdxrj0RDuoKuzc9zngAENINWF/uguHmEE1Z15+Ixi8COI0Y2TecuL4c0fzCRxgSVLgRiPoOY5hXn4nM6iideZfA943R6opMf7AezGqppy2qJ6UTgg7GENAB+07PDGaT+AAS5JC8DJCPVc9KT80gyrWeX0bE/gNUGcMqaZsx8opXzaDakKMgY0m/wTY3xgCIOXHo/0UDrAkKU3/ZQS9wJvpLMwxgyrO3JhQn54NbGsMqQaF+HG6CrsaQlWvq++bwAcMoWdcRXvTdaP9JA6wJCnk/mUEreEg4od03La+IVRRds6fROAthpBqVj3EX7BwoWdYqnp19p5IiJ82hJ6zY12UqxscYElSutMSYJkh9AKbE/q/bgZVjK78wRA+bwip5r2CRzb3Z11Vuq0qfJQQTjKEnuNeHlk6vxifyAGWJLWHQQI3GUIvEuIxdOXfbAiNufn57YBfAcEYUiacSHffK8ygqtJZOAriKYbQC/yYo2f0F+MTOcCSJIDI9UbQGgTgNM5Zsp4pNGbO69uYwXgxsKExpMyoI6a/8qmEqhqdhcMI8Rf4ixY93wpWJ78o1idzgCVJT7vKBFqLlzFx4BQzaEwsKExlXHoxhCZjSJnTzKpJPzKDKl5nfjYh/grnC3qxX3Jow8PF+mR+g0kSQJpcYQStVeQouvLvMoTK6sw7JrA6XgB4GZGUWeG9dPYeYQdVrM7CYQTOB3zwgF5okFzd94v5CR1gSRJAe8O9wB2G0DqcTldfoxlUFh0xx5SVZxN4vTGkjAvhp3T0NBtCFaer9+OEeDZQbwy9eN3F+cyaflsxP6UDLEn6H8/C0rpMgfQ8zrxjgilUUjEGksIvCLQZQxIwmSSZz/wbpplCFbOd6s5/DcL38J5XWst3CTF8q9if1AGWJP1XiH8zgl7CHkxdeaoZVOKDgu8D7zGGpOfYiYEJHSxc6GVaGlsdMce8ws+IfN4YWvv+DBfT1lj0p7w7wJKk/wrBAZaG4ki6ej9uBhV/Zy8GugunQDjeGJJevJ/CG3lk85MNoTFz8ZLxhML5RI42htYtLcm6ytP9JOm5uvL3AZsbQi9hkCS+ldnNfzGFimJuTNi5cCrwAWNIWqcYj2NO808NobI6Z8l6TBjoBg4whtYtXEpbY0m+TzwDS5Ket1PIlUbQEORIQxcdPbubQqPWEXPsXDgDh1eShnRsGH5Ed8F75Kl8unqnM2Hg7zi80pDWUelJpfrUDrAk6flrRW/krqFajyS5iAsWb2MKjdjChXXkCufgPa/0tCdNoCHtrcR4Np09/2cKlVxn31shuQbwSZgaij/T2lyy4ykHWJL0XCF3iRE0DFsxUPdHzr1pA1No2M68YwIPb95B5J3G0DPONoGGaAIhuZCOvr1NoZKIMdDZ+xlCehHEaQbRkKTJV0t6qGZhSXqBrt5bIexgCA3D9azqP4DDdn3MFBqSjp4NSXIXQPQMCv3XEsYvew2rJt8P5MyhIR7OPQ68kbbGRbZQ0Zx142QmjzuTyBxjaMgif2RO01tL+SU8A0uSXrwz+AcbaJj2ZEL971lQmGoKvaTuW15Oklzt8Eov8GUOnvEw4CBCwzlinEaIf6Ajv4stVBQdhe2ZNO5qh1ca7sqIJPlSqb+IAyxJetGaMfzeCBrBZvvV9MffceGiScbQWnXmXwOD/wQajKHn6OHmxt8+vS6JboM03O3PxuS4jK7CDGNoVLoLh5DEa4FdjaFhCXTR2nBtyQ/TLC1JLzAhtxBYagiNwH6snrSQjp4NTaEX6czPJnAJkY2NoRf4MnNDCkCO+ebQsEU2hriQ7l6fEqfh67h7Il35HxDjBcBGBtEw9RPjF8rxhRxgSdILHTh9FbDQEBrZQUTYmyT5Cx1LNjGGAJgbEzp7TyTQCUw0iF7gBlob5z37b7ObbwaWmEUjMIUYfkdn/m2m0JB19exBsvR64KN4j2yNzGm0NZdlu+UAS5LWKFxsA43CniQDV9Dd+zJTZFxHz4bs3HchIZzkfpfWKPIlQojP/7PgWVgaqYkELqA7/xFTaN3rnhjoKhwPyd+BRoNohJZSP/D/yvXF3JGSpDWp6/89EA2hUWiEsIjuwj6myKiOnt1JkmshHmgMrVHgcuY0XfTiPfTUAZZGI0fkh3Tlf0BH9ImWerEFizejO/97iKcA4w2iEYvxW8zc5YFyfTkHWJK0Jm/f5W7gZkNodBt1NibGS+jsfacxMqaz9wiS5Crg5cbQWtcQMZywxv8yu+mfwL0m0ih9lFCYxzlL1jOFntXd+w7663ogvNUYGqV7WdH/vXJ+QQdYkrQ2IVxgBBXBBEI4l87eE4nRe0vUugWFqXT1nkEIvwZ8IqXW5XzaGhetZfsTAbdBKsK+DIcwYWAR83p3NkbGdfRtRVe+mxjOxxu1qzg+xRG7LSvnF3SAJUlrE8N5RlDRtrchnER330Wce9MG5qjVg4P8q+mP10F4rzH0ElYTcl9c9zbIywhVNNNJw9/pKrSbIoMWLqyjO/9JkrQPmG0QFclVtDaeX/4daknSmrU1FIAbDaHiiQcyvu5aunr2sEUNOfOOCXTmv0PClcB0g2gIfkjrTrev8yN6mhfiZYQqnikQf0tX4SzOunGyOTKiq2cPHtn8aiLfAVzuKpaUkHz8RQ8gKQMHWJK0LjH+xggqrrADJP+kMz+XudHtcNUfHBR2ZerKfxD4pPtVGtoqgMdI02+85MfNDSngNkjF3rF5N5PGLaK7d09b1LALF02iu/BNSK4FXmEQFdkZtDZcOxZf2B0tSVqXuvBbfBqhiq+ewJfZufAnFhS2NEcVOuvGyXTlvwHxOmA3g2jo84Mwl/aWR4f0sSlnGUwl0EgMV9PZ+xkWLqwzRy2tX2Kgq9DOqsl9xPgZwKdQqsjC4yT1Xxyzr+4CkKSX0JW/CniNIVSyHYEQP8Psxp+PxanYGtE64WDgh8B2xtAw9fDIsj04ekb/0L/fCjdA3N10KpEbIbx/rQ8UUPXo6NubJH4H4v8ZQyUT43HMaf7pWH15z8CSpJfmJRwq5Z7ANCKn0V34K/PyO9mjgnX1Tqcz/wfgdzi80kiE8JFhDa8ASD0LS6W0G8Sr6c5/jY67J5qjCnX07EhnvpMk/YfDK5V2Gxavoafp1DF9CS4FSXoJCxZvRn/dvXgatkpvOSF8gyfHf4ejtl9pjkpZBxSmspovEuLHgHEG0Qj9hramQ4f9t+bduilp/72Al3qp1O4hxi8wp9mhaTXo6NmQXO7TxPgxYLxBVGKDkL6CtpYbxvJFOMCSpKHozP+ZwBsNIQ8iMuTCRZNYNeUDxPg5ApsZRKPwFGnSRHvDyJ4q2Jm/iMBBZlSZXEKaHk97S68pKtDFS8azbOAjhPAFiNMMojL5Pm1NnxjrF+ElhJI0FCE4SFA5bU0Iv6Yrv5CO/KvNMQYHB12Fj7Jq8m0QT3F4pSJsRL464uHV03//1zZUGR1AktxEd/6XdPRsa44KceYdE+gqHMPygT4C33Z4pTJuw+4mTb9UEa/EhSFJQ9xpWG/l3UQ2NobGwIUQvkhb402mKKGOnnGE5Khnfqu9jUFUHDFPGnenvWX1iD/FaYvq2XDynQR8aqnKbRUx/Ixc3TeYveOD5hiTbdMUQvIhAp8AtjCIyr8ZC29nTuOCSngpDrAkaai68t8GTjCExkgKXECanEx7wzXmKObBwZJNyA0eTYzHenCgYu/2E8IbaG1cOOrP1J3/MpG5JtUYWU7kDJL4XVqb7zJHObZNPRuSSz5C5KPAhgbRmAicT2vTuyrn5UiShqardzqEPtedqgB/JQknM6vhT4QQzTHSn+nCrpAeD+FQYIJBVHzxl7Q1v68on6q7dwtiuAuot6vGUD9wHoTveVZwKbdN8TjgMGCyQTSGHmR10sKhDQ9XygvyIEyShsObuauyLAFOJU1/RXvLo+YYgjPvmMCUVQdD/BCB1xtEJXQ/q/qbOWzXx4r2GbvzvyHyTtOqQo4krwNOZ9yyczh4xnKDjMLcmLBz4SDgo8AbPE5XZfyMhzm0NnZV1mpHkjR0XflWoMsQqjArCXSQpmfR07yQuSE1yQsODHbp25eYHg6hFVjfKCrDbvY7aGvsKOqn7Oh7LUn6N9uqwjwK/BqS02lrKJhjOPuVvdMhHA68D9jKIKocsYO25ndU3JbVBSNJw7BwYR0Pb36XN9JVBbuXyPmE9FzaWm7I9oFBzx4Q3vX0P2ztt4bK6ELamg4pzfd1/l/AbiZWJR7xAlcD51M/0MnMXR4wyRrMy29EGt9JCIcR8UnDqkQPkda10D79oUp7YQ6wJGm4ugsnEeOJhlAV+DfwR+Ai0vRPo3oKWjU468bJTBr3euBtEN7qkwQ1Rp6kbmBn3r7L3SX57F35DwCnm1kVbhBYCOE3rFo9v6iX0laj+TdMI51wICnvIPAWYJzfIqpgbbQ1dVfiC3OAJUnDdcHibRiouwPIGUNVdVANV0C8jCR3GbN2uqnqbwB/5h0TmLxyDxL2JfAWIvsAdS5qja34Ydqaf1KyT99x90SSpXcCm9paVWI1kcsI4Q+Q/oG25iWZeNcdhe1JOIQYDyHwf/gABlWDwJm0Nr23cl+eJGn4vJGuqt8jEP5JjNcS4jWk9ddW4qni/5sJxEBn306E9JWEsDfwSp6+jMoDAlWShdzceEDJ70PXnf8cka+bW9Up3gbhj4T4B5b1/5UjdltWE2/r3Js2YHz9a4nsS+BNwC4ua1WZ26kPuzOz8alKfYEOsCRpJDp6didJrnc9qhpzH4ReiHkIPSTpbaTxP6wa/E/ZLv9YUJjKQDodmE7KTiShAeJ0YmjAm6+rsj1BiLvR2nxX6bdBt61PsvoufyZUAwaAm4CrCfydhKuZ1XRndewL9m319C9V2BfC6yDuCiQuUlWpQSKvY07T1ZX8Ij3wkqSR6sz/4Zn7GEhZsAK4F8J9hHgvkfsgLifyFIGlkKwg8hSEpSSD/c/7mzGsTwxP79SHWEdgYyIbE8PGEDclYRMiGwOb4GVRqlaBo2ht+lUZt0FfJ/A5w6sG3UfkWgK9hNjLYOhl4rI8B89YPiavpqNnHAnTibndCeluEPYgsPsz2y2pRrZh4au0Nn6p8je1kqSRHjzsR2ChISQp4yK/Y07TzLJ+zXm3bkrafycw0QWgDEiBu4BbCPyHyN1E/gPcS0zvYXzuQdIVy5m1x+PD+qzzb5gGUzYiTTckphsS42YkYXsi2wPbQ9ge4lZ4ZpVqWYjX8PDy13L0jP6Kf6kuLUkaha78VcBrDCFJWd3x52HqBnZm5i4PjME26EfAh10I0vMsA5YDT/H04CtZw8/tBkTWx8GU3Ig9TsqetDfeUQ2v1if1SNKoxG9DmG8HScrszv8xYzK8Aqgb+BYDdR8ExrkcpGdNfuafTda++2Yk6ZkfhmNpb7qjWl6tE2dJGo3WpgVAryEkKZN+RWtj15h99bfvcjfEc1wMkqQR+DFtTb+pphfsAEuSRiOECHzLEJKUObdSHz465q8izX2Jpx+yIEnSUN1EOuXT1faiHWBJ0mg9suw84HZDSFJmrIK0nZmNT435K2lvuBf4mYtEkjRES0lDO+3bVN0vPxxgSdJoHT2jnxi+ZAhJyojAp2hruaFiXs/q5BvAky4YSdJLiIRwFO2NfdX44h1gSVIxtDWcB1xvCEmqdeFiZjf+uKJe0qENDxPjd1w2kqR1b8LCt8b03o2j5ABLkoqzMYgk4QuGkKSadi+rw5HP3P+wsqzo/x5wv4tIkrRGkcvY8L4vVvNbcIAlScUyu/GPwF8NIUk1aZAQD+XQhocr8tUdsdsy4GsuJknSi4W7iXXvZP/9B6r5XTjAkqSibhuSTwPREJJUYyKfpbX5iop+jWl6OsTbXFiSpOdYRQittE9/qNrfiAMsSSqm1oZrgXmGkKQaEplPW+N3K/51tresJoaPucAkSc8K8bhnjlGqngMsSSr+mvXzwIAhJKkmFFhV956KvO/VmsxpuojI711skiRiOIXW5jNq5zBLklRcs5tuIXCGISSp2oXHIR7C4dOfrKqXXVd3PLDK5SdJmfZnNr7vU7X0hhxgSVIpDKafJ/CwISSpakVC+l7ampdU3SufNf024PsuQknKrD5yK99R7TdtfyEHWJJUCu0tjwJfMIQkVanAV2htnl+1r3/8sq8Cd7kgJSlzHoV4MLP2eLzW3pgDLEkqlcWNvwD+YQhJqjoXsbjxq1X9Dg6esZwYP+uilKRM6ScJc6ry7OEhCC5fSSqh7t49ieEaIGcMSaoKS8it3LtmfnPdmb+UwOtdrJKUBeF9tDX+slbfnWdgSVIptTZfD5xqCEmqCstI4uyauuwihvcDS120klTjIl+p5eEVOMCSpNLLrfwikQcMIUkVvutPeC+zm2+uqXfV3ngHxC+5eCWppv2Gtsav1PqbdIAlSaU2a4/HIX7aEJJU0b5KW2NHTb6zm5t+QIhXuoglqSb9lUl1RxFCrPU36j2wJKkcYgx0Fy4D9jOGJFXcSvocWpuOqOmd/45CA0n8FzDB5S1JNaOX3Mp9avGJg2viGViSVA4hRNLwXuApY0hSRa2g/8ak+vfX/G+u2xv7iHzV5S1JNePfhLo3Z2V4BQ6wJKmcBw93EPmUISSpUsTbSHOtHDh9VSbe7sb3f4vAdS53SapygYdJcm+hdfo92XrbkqQyHivFQHf+9xDeagxJGlOPQHw1bc1LMvWuuwq7QrwGGO+3gCRVpacgvJ62xkVZe+OegSVJ5RRCpD55P/CoMSRpzKwkckjmhlcAbY03EeJn/RaQpKq0mkhbFodX4ABLkspvZuN/IBxvCEkaE5HA+5jTdHVmC8xu+gFwkd8KklRVBonhcOY0/TmrARxgSdJYaGs8h0CnISSpzEL8LK1N52W7QYjUD7yfyAN+Q0hSVYiEeDRzGjN9/OAAS5LGyqrkWA8eJKmcwhm0Nn/LDsDMXR4gcCQQjSFJlb754lO0Np+R9QwOsCRprBza8DCBD3jwIEnlEP/ARvd9yA7P0db0J+AUQ0hSRfscrU3fNYMDLEka64OHC4nh24aQpBIK/J00trP//gPGeIFJdZ+D8C9DSFJFbr/m0tb0TUM8zQGWJI21je/7AnCFISSpJG5kZf9BtLcsNcUaHDh9Fbk4C3jEGJJUUb5Pa9NXzPA/wQSSVAEWLN6M/robgC2MIUlFcwv1A69j5i7eb/CldPceRAy/w19wS1IFiD+grfljdng+N1CSVAlm7vIAIRwGDBpDkori36TpGx1eDVFr8+8JnGQISRpz36O16eNmeDEHWJJUMQcPjQuJ0dOEJWn07iXk9qe95d+mGIbZjScB8wwhSWMlfpu2pk8Sgg95WgMHWJJUSXqavkbkj4aQpBEKPEyavonWnW43xnDbhUh9eA/EvDEkqezr4JNpa/60Ida1iZckVZbz+jZmXLwe4jbGkKRheYIQX09r8/WmGIWuvkZI/wmsZwxJKoPAXG/Y/tI8A0uSKs2hDQ/D4EzAJ2ZJ0tAtJ8RDHF4VQVtDgRDeB6TGkKRSC592eDU0DrAkqSIPHlpueOam7h48SNJLW0VkFq3NV5iiSFobu4jx84aQpJKJhPhx2hq/bYqhcYAlSZV78PA7Al4HL0nrtpzIIcxp+rMpimxO88nA6YaQpKJLifHDtDafYoqhc4AlSZWstem7EH9mCElao2XE1OFVSQ+xGo8FLjKEJBXNagLvZk7zT00xPA6wJKnSPbL8eOASQ0jS8zxB5E3MabnUFCXUHgapD4cCNxpDkkZtGTF5O61N55li+HwKoSRVg3OWrMeEgauAnY0hyT1YHiOmb6Wt5Z/GKJMFhS3pj/8EtjaGJI3Io6S8jfamv5tipJt/SVJ16ChsTxL/AWxqDEkZ9iBJ8iZmN3hGULl19+5JDH8FphpDkoblThLezOymW0wxcl5CKEnVor3xDkKcCSw1hqSMuo8kt5/DqzHS2nw9IbwVWGYMSRqyHkLd/zm8Gj0HWJJUXQcP/yAJM4GVxpCULeFuiPsye6e8LcZyO9R4FZHZwGpjSNJLbbq4nNzK19I6/R5jjJ4DLEmqNrMbLyOEdwADxpCUEXeRy+1PW/MSU1SAp5/6+B4gNYYkrVU3T054C7P2eNwUxeEAS5KqUWvj7yAc5cGDpAzoJdS9llnTbzNFBWlr+g2B9wHRGJL0Ij/k5sZ2jtreqyaKyJu4S1I16+w9lhB+YghJNeqfrE7exqEND5uiQnUVjod4iiEkCYBVwNG0Nf3aFMXnGViSVM3mNP+UyBcMIanmRH5HOmV/h1cVrq3xB8T4/wwhSTxICG9weFU6DrAkqdrNafo6IZxsCEk1I3AmG9/fSvs2K4xRDduh5hOJ8bOGkJRhN5OGV9HaeJUpSrl7IEmqfjEGugvfAT5hDEnVvDYD5tLWdJIpqlBn72cI4ZuGkJQxfyId9w7ad3jCFKXlGViSVAtCiLQ1fdLfgEuqYqsI8UiHV1VsTvPJRD5lCEkZcjob3f82h1dlOuQxgSTVGH8DLqn6PErKbNqbLjdFDejq/TiE73qsIamGrSDGDzGn+SxTlI8bFUmqRU8/nfDHruclVb54G2lyEO2Nfbaope1Q/mgCP8UrPiTVnrsIyRxaG641RXm5QZGkWvT00wmPAVJjSKpgfyWNezu8qsXtUNNpBI4BBo0hqYZcSG7l7g6vxoYDLEmq7YOHdwMDxpBUgU7nkWVvor3lUVPUqNam04mhFfBpkpKq3SCRr3Bz49uZtcfj5hgbXloiSbWuu/cdxHA2UG8MSRVgNfBh2pp+borMbIdeRQwXARsZQ1LVCTxMymHMafqzMcZ6UUiSat+8wutJ4zxgfWNIGuODgDnMafqrMTKmq6cFcn+AuI0xJFXRdus6EtqY1XSnMcaelxBKUhbMbryMlP8D7jGGpDFyLbmBPR1eZVRbSw8h/T+IeWNIqgKRGE5hMH2Nw6vK4RlYkpQl3b1bPHMZx57GkFTGXc6zSScfTfs23gsp6869aQMm1P2OGF5rDEkV6kFCfC+tzb83RYXtTZhAkjKmo2cKSe63EA80hqQSW0mIH6a1+QxT6FkXLprEysm/JtBmDEkV5iLSuvfSPv0hU1QeB1iSlEULF9bxyGY/gvAhY0gqkVshtNLWeJMp9CIxBrrynyaEr+NtTSSNvZUQPktrww8JIZqjMjnAkqQs6+w9kRC+4vZAUpH3MDsZHPcB2nd4whhap+7eg4jhXHzIiKSx0wPhUH/hUg27F5KkbOssHEaIPwcmGkPSKK0g8DFam043hYasI78LCQuA7Y0hqYwi8HPGL/s4B89Ybo7K5wBLkgTz+nYjTed78CBpFMcBeUje6W+wNSLn9W3MuLQD2N8YksrgTkL8AK3Nl5iieni9uSQJZjfcSMIriPzFGJJG4HTSqXs5vNKIHdrwMBvd/yZCONkYkkooAqdTH3Z1eFV9PANLkvQ/HTFHKJxI4EtuIyQNwUMQP0hb8wWmUNF05T8A/BCYYAxJxRNvIw3vo73pcltUJw9OJEkv1l04hBjPwpvqSlq7P1Ef3svMxv+YQkXX1dMCyW+BFmNIGqWn73WVpp+kvWWpOaqXAyxJ0pp1FBpI0vkQmowh6TlWQPicjxpX6bdDPVNIws8gHG4MSSMTbyOG9zOn6a+2qH4OsCRJazf/hmkMTPg1gUOMIQm4glzde5k1/TZTqGy6Cu+F+CNgkjEkDVE/MXyfOHku7dusMEdtcIAlSXppnb1HEMJPgcnGkDJpOTGeRE/Tt5kbUnOo7Lr6GiH9LbCrMSS9hCtI4nHMbr7ZFLXFAZYkaTgHD+cCexpDytTu4t9IB99Le8utttCYOvOOCUxdeTLwUWNIWoP7ifEztDWd7SXuNbpHYgJJ0pBdvGQ8ywa+RuATbkOkmt9NfBzip2lt/IUHAqooXfl3EfgJkQ2MIQkYJPJT4rgTad/hCXPU8J6JCSRJwzav8HrSeBawlTGkmnQRoe4YWqffYwpVpAWLN6O//lSIbzeGlGGB6xhMjqW94RpjZGFxS5I0EvNvmEY64WdE3mkMqWbcThKOY3bjH02hqtCdfw+RU4D1jSFlyoOE+HlmN/3Ss4SzwwGWJGm0Bw8fJPI9vMG7VM1WE/kuccpXfVqTqk5Hz+aE5DSfmCtlZHsFp5KO+5KXC2aPAyxJUhEOHgrbk8SfAW82hlR1u4OXwuDxtLX02EJVrbMwhySe5r2xpJoUCXQxGD5De+Md5sjoHosJJElFPXgI8SfAJsaQKv5Y4DZi8jnmNHbaQjWjo2dbQvILAm80hlQzFhLiCbQ2X2+KbHOAJUkq8sHDkk3IDXyfyGHGkCrSUuBrTKr7PgdOX2UO1aSu/MHAT4GtjSFVrT5iONFftOi/HGBJkkpjXuEtpPFnwHbGkCpCCuFcQvoZWpvvM4dqXsdt65OsPgk4FqgziFQ17oXw/9jovl+w//4D5tB/OcCSJJXOhYsmsXrKl4jxBCBnEGnMXALhk7Q13mQKZc68vt1I058A+xhDqmgPEeN3iVN/6ANFtCYOsCRJpdfRtzdJeiqwhzGksu7pXUcIn2Z242XGUKbFGOjKv5sQvg1sahCpojw9uJqw/EccPGO5ObT23RpJksp78PBNYAuDSCX9gcsT+SY9TecwN6T2kJ7R0bMhSfgahA8CiUGkMfUggW8xbtnPHFxpKBxgSZLK66wbJzNx3KcIfBqYaBCpqO4i8HUGG8+gPQyaQ1qLebc0EQe/QmSOMaSye4TIj1lV9z0On/6kOTRUDrAkSWOju/dlxORkiO1uj6RRu4vIN3h02S85eka/OaQh6si/mlz8FjG81hhSObZV8WfE8afSvsMT5tBwecAgSRrjg4e+vUnS7wOvMYY0bHdCOIVJuVM5cPoqc0gj1JU/GPguMN0YUtHdSIzfY+MHzvOpghoNB1iSpLEXY2Be/nBi+DqwtUGkl/yhyUPydTa673wPBqQiOW1RPRtPPorIV4DNDSKN2lXAybQ2XkQI0RwaLQdYkqTKcfGS8Swf+ADwWWArg0gv8k/g29zcON+bs0sl0tEzhST5BHA8sKFBpGEZADoh/TZtLTeYQ8XkAEuSVIkHD+PIJe8h8iUcZEkpcDEh/oDW5kvMIZXJgsJUBtJjSMMnCGxmEGmdHiKEX5LEU5nVdKc5VAoOsCRJlavj7okkyz4I8TPAFgZRxiwncDaB7zG76RZzSGPk4iXjWTFwJDF8EeI2BpGeI3AdcDrjlp3DwTOWG0Sl/XaTJKnS/feMrJQvE9jSIKpxtxPj6eTCL5jd9Ig5pApx2qJ6Npz0LkL4ArCTQZRhqwj8jpRTmNN0tTlULg6wJEnV48JFk1g16WgIxwMvM4hqSAT+TOTH9DRe7P2tpAq2cGEdj272LmI4AdjVIMqQJRB/xqqBX3HYro+ZQ+XmAEuSVH06Yo5c3yxi/Biwj0FUxe4nhF8T0zNoa15iDqnatkf5vUjC8RDfBdQZRDVoBYGLIJ7O7KZLfZqgxpIDLElSdevu3ZMYjgaOACYYRFUgBS4jhtN5dOkFHD2j3yRS1W+LtiANRxM4FtjEIKqB7dTfCZzFYHoe7S1LTaJK4ABLklQbFhS2ZCAeB3yQyMYGUQXqg3A2IfdrWqffYw6pBl28ZDzLBg8hxE8ArzKIqmw8cDeB80hyP2fW9NvsoYr7DjWBJKmmdNw9kdzSdxM5GtjTIBrjPa2HSfkNMTmH9oZrDCJlSHdhH2J8P9AGTDGIKtQjwDxiejZtzVd6iaAqe7dKkqRa1VXYlchRhHgYXtKh8llK4CIi5/HIsj96iaCUcWfeMYEpqw4mxCOAtwI5o2iMPQrh9xA73U6pmjjAkiTVvo6YI5ffH8IHibwdqDeKimwFcCkxdhLjPO8XImmNupdsTdp/GCG8H9jRICojh1aqeg6wJEnZsmDxZgzUHU7kKKDFIBrFXtTDwMXEOJ+nJv6Ro7ZfaRRJQxJjYF7+/4gcCeHtwIZGUfG/z3iAwAKS2MUGDyxk//0HjKLq3vWSJCmrOvJ7kdAGzAIaDKIhuAXiAmK8kNh8Ne1h0CSSRrctijm45dUk6RxgDrCFUTQKvYRwIYPhInp3upq5ITWJaoUDLEmSALp6Wgi5WcQ4C2/+rv9ZQeRyQvwzaXIx7Y19JpFUMnNjQvMtryEX30ZM2yDsYBS9hOXAZQQuZDD5Pe0N95pEtcoBliRJLzQ/vx2DcRaB2cTwGiAxSqYsJvJncvFPPDHxb14aKGlMxBjo7t2bmJtNiG8FdjGKgAj0EMMlJOnvGYxX0N6y2izKAgdYkiSty4LFm9FffxDENxB5A4HNjFJzxwJ54K8ELqdu8K/M3OUBm0iqOPNu3ZTBgX0J8QDgYLzUMEtuh3AVIV4JdRfTOv0ekyiLHGBJkjRUMQY6CzuTi28ghjcA+wJTDVNVBoCbgKsJ8UoG4+W0t9xvFklVZW5MaC7sQYgHEMIBwOuAcYapGfcT+BtwCQl/ZlbTnSaRHGBJkjRyCxfW8egWryTGN0A4AOLewHjDVNhBAPGfRP5Owt8Zt3wRB89YbhZJNeWcJesxof+1wGsI4bVEXgFMMkxVGARuhng1kX9QV38Vs6bfZhbpxRxgSZJULAsX1vHIpg3EsBch7EVgHyK7AznjlGWv5jEivcB1xHgdIV5HW0uPYSRldnsUkn2I4bUQ9wW2NUxFeBK4hshVBK5jVf+VHLbrY2aRhrKrJ0mSSmdBYSqr416E8Api3JvAK4CXGWZUlhJiLzFZDLGXJC4mcjOtzfeZRpLWoqt3OjHZG+IehLA7xD2ADQ1TUncRyRO4mRgXkwv/YHbTLWaRRsYBliRJ5dZx2/ow0ECSNhFCE5EGiM3Ay4E6AwFPP2Xp38ASiEsI3EKa6yPGAnMa7iSEaCJJGu32qGdbcrndIe5BDLtD3B3YzjDD8gRwG4HbSLmVEG6FwR5Wjstz+PQnzSMVjwMsSZIq50BiHLAjSfL0UCvEHYhhSwLbQNgK4rQaercrgH9DuAfiPYTwb4j3QLyXwF08MfFWjtp+pd8UklRm82+YxuC4BkLY6elfsDAdkp0gTgcmZ6zGSoj3QvIfQvw3kfue3W6R3sPquts4tOFhv2mk8nCAJUlStbhw0SRWTd2WJG7JYLo1hK0JbElkMwLTCGxAZH0C04hMo7xnc60k8iiBR4FHITwK6aPAIxAeJcaHIdxPLrkb0nuY3fSIC1SSqkz3kq0JgzuRshPEHYAtCXFbYtga2JLqeRLiUuA+4EEID0F6HzE8SMJ/IN5LTO4mzd1H+/SHXOhS5XCAJUlSrTrrxslMmDANBtYnJNNI4iQi44jJ83+DnqTrQVjzjeZjeJxIJEmXA6sYDP3P7PhDfd3jhJWrya16xCf7SVLGxRiYl98ccluTxi1J4rakYWtC3JTIhgQ2Ajbi6ftubUTxH3CyGsIDhHgPKfcTuJcQHiBN7ydJHoT0QZJwP/1THqB9mxUuMKn6OMCSJEmSJJXX/Bum0T9uYxI2IsltwCBTIZ1IEiaQsh4J9RDWJ6YTIEwEphKoI/IgMT4AyT2E9AHScDd19Q8we8cHjSpJkiRJkiRJGjP/H1r142VgAbAAAAAAJXRFWHRkYXRlOmNyZWF0ZQAyMDE5LTEyLTA3VDE5OjAxOjMyKzAwOjAw1HBOpwAAACV0RVh0ZGF0ZTptb2RpZnkAMjAxOS0xMi0wN1QxOTowMTozMiswMDowMKUt9hsAAAAASUVORK5CYII=;" parent="1" vertex="1">
          <mxGeometry x="710" y="400" width="81.32" height="30.56" as="geometry" />
        </mxCell>
        <mxCell id="0cYMqMnYgfQtPlaYT9zV-14" style="rounded=0;orthogonalLoop=1;jettySize=auto;html=1;strokeWidth=2;endArrow=block;endFill=1;" parent="1" source="7pCcbKnivMy4boOvyqDV-1" target="7pCcbKnivMy4boOvyqDV-7" edge="1">
          <mxGeometry relative="1" as="geometry" />
        </mxCell>
        <mxCell id="0cYMqMnYgfQtPlaYT9zV-15" style="rounded=0;orthogonalLoop=1;jettySize=auto;html=1;strokeWidth=2;endArrow=block;endFill=1;" parent="1" source="7pCcbKnivMy4boOvyqDV-1" target="7pCcbKnivMy4boOvyqDV-6" edge="1">
          <mxGeometry relative="1" as="geometry">
            <mxPoint x="231" y="478" as="sourcePoint" />
            <mxPoint x="300" y="560" as="targetPoint" />
          </mxGeometry>
        </mxCell>
        <mxCell id="0cYMqMnYgfQtPlaYT9zV-16" style="rounded=0;orthogonalLoop=1;jettySize=auto;html=1;strokeWidth=2;endArrow=block;endFill=1;" parent="1" source="7pCcbKnivMy4boOvyqDV-1" target="7pCcbKnivMy4boOvyqDV-4" edge="1">
          <mxGeometry relative="1" as="geometry">
            <mxPoint x="231" y="478" as="sourcePoint" />
            <mxPoint x="300" y="560" as="targetPoint" />
          </mxGeometry>
        </mxCell>
        <mxCell id="7pCcbKnivMy4boOvyqDV-1" value="CloudTrail" style="sketch=0;points=[[0,0,0],[0.25,0,0],[0.5,0,0],[0.75,0,0],[1,0,0],[0,1,0],[0.25,1,0],[0.5,1,0],[0.75,1,0],[1,1,0],[0,0.25,0],[0,0.5,0],[0,0.75,0],[1,0.25,0],[1,0.5,0],[1,0.75,0]];points=[[0,0,0],[0.25,0,0],[0.5,0,0],[0.75,0,0],[1,0,0],[0,1,0],[0.25,1,0],[0.5,1,0],[0.75,1,0],[1,1,0],[0,0.25,0],[0,0.5,0],[0,0.75,0],[1,0.25,0],[1,0.5,0],[1,0.75,0]];outlineConnect=0;fontColor=#FFFFFF;gradientColor=#F34482;gradientDirection=north;fillColor=#BC1356;strokeColor=#ffffff;dashed=0;verticalLabelPosition=bottom;verticalAlign=top;align=center;html=1;fontSize=12;fontStyle=1;aspect=fixed;shape=mxgraph.aws4.resourceIcon;resIcon=mxgraph.aws4.cloudtrail;labelBackgroundColor=default;" parent="1" vertex="1">
          <mxGeometry x="182" y="390" width="78" height="78" as="geometry" />
        </mxCell>
      </root>
    </mxGraphModel>
  </diagram>
  <diagram id="-fmIqAUgXJ9LNtcKPAlC" name="Page-3">
    <mxGraphModel dx="989" dy="177" grid="0" gridSize="10" guides="1" tooltips="1" connect="1" arrows="1" fold="1" page="0" pageScale="1" pageWidth="850" pageHeight="1100" math="0" shadow="0">
      <root>
        <mxCell id="0" />
        <mxCell id="1" parent="0" />
        <mxCell id="eUzcAfyj9yn78HCPL1Ql-2" value="Config" style="sketch=0;points=[[0,0,0],[0.25,0,0],[0.5,0,0],[0.75,0,0],[1,0,0],[0,1,0],[0.25,1,0],[0.5,1,0],[0.75,1,0],[1,1,0],[0,0.25,0],[0,0.5,0],[0,0.75,0],[1,0.25,0],[1,0.5,0],[1,0.75,0]];points=[[0,0,0],[0.25,0,0],[0.5,0,0],[0.75,0,0],[1,0,0],[0,1,0],[0.25,1,0],[0.5,1,0],[0.75,1,0],[1,1,0],[0,0.25,0],[0,0.5,0],[0,0.75,0],[1,0.25,0],[1,0.5,0],[1,0.75,0]];outlineConnect=0;fontColor=#FFFFFF;fillColor=#E7157B;strokeColor=#ffffff;dashed=0;verticalLabelPosition=bottom;verticalAlign=top;align=center;html=1;fontSize=15;fontStyle=1;aspect=fixed;shape=mxgraph.aws4.resourceIcon;resIcon=mxgraph.aws4.config;" vertex="1" parent="1">
          <mxGeometry x="230" y="602" width="78" height="78" as="geometry" />
        </mxCell>
        <mxCell id="eUzcAfyj9yn78HCPL1Ql-6" style="edgeStyle=orthogonalEdgeStyle;rounded=0;orthogonalLoop=1;jettySize=auto;html=1;endArrow=block;endFill=1;strokeWidth=3;" edge="1" parent="1" source="eUzcAfyj9yn78HCPL1Ql-3" target="eUzcAfyj9yn78HCPL1Ql-2">
          <mxGeometry relative="1" as="geometry" />
        </mxCell>
        <mxCell id="eUzcAfyj9yn78HCPL1Ql-3" value="Bucket" style="sketch=0;points=[[0,0,0],[0.25,0,0],[0.5,0,0],[0.75,0,0],[1,0,0],[0,1,0],[0.25,1,0],[0.5,1,0],[0.75,1,0],[1,1,0],[0,0.25,0],[0,0.5,0],[0,0.75,0],[1,0.25,0],[1,0.5,0],[1,0.75,0]];outlineConnect=0;fontColor=#FFFFFF;fillColor=#7AA116;strokeColor=#ffffff;dashed=0;verticalLabelPosition=bottom;verticalAlign=top;align=center;html=1;fontSize=15;fontStyle=1;aspect=fixed;shape=mxgraph.aws4.resourceIcon;resIcon=mxgraph.aws4.s3;" vertex="1" parent="1">
          <mxGeometry x="30" y="602" width="78" height="78" as="geometry" />
        </mxCell>
        <mxCell id="eUzcAfyj9yn78HCPL1Ql-4" value="SNS Topic" style="sketch=0;points=[[0,0,0],[0.25,0,0],[0.5,0,0],[0.75,0,0],[1,0,0],[0,1,0],[0.25,1,0],[0.5,1,0],[0.75,1,0],[1,1,0],[0,0.25,0],[0,0.5,0],[0,0.75,0],[1,0.25,0],[1,0.5,0],[1,0.75,0]];outlineConnect=0;fontColor=#FFFFFF;fillColor=#E7157B;strokeColor=#ffffff;dashed=0;verticalLabelPosition=bottom;verticalAlign=top;align=center;html=1;fontSize=15;fontStyle=1;aspect=fixed;shape=mxgraph.aws4.resourceIcon;resIcon=mxgraph.aws4.sns;" vertex="1" parent="1">
          <mxGeometry x="651" y="680" width="78" height="78" as="geometry" />
        </mxCell>
        <mxCell id="eUzcAfyj9yn78HCPL1Ql-5" value="EventBridge" style="sketch=0;points=[[0,0,0],[0.25,0,0],[0.5,0,0],[0.75,0,0],[1,0,0],[0,1,0],[0.25,1,0],[0.5,1,0],[0.75,1,0],[1,1,0],[0,0.25,0],[0,0.5,0],[0,0.75,0],[1,0.25,0],[1,0.5,0],[1,0.75,0]];outlineConnect=0;fontColor=#FFFFFF;fillColor=#E7157B;strokeColor=#ffffff;dashed=0;verticalLabelPosition=bottom;verticalAlign=top;align=center;html=1;fontSize=15;fontStyle=1;aspect=fixed;shape=mxgraph.aws4.resourceIcon;resIcon=mxgraph.aws4.eventbridge;" vertex="1" parent="1">
          <mxGeometry x="651" y="524" width="78" height="78" as="geometry" />
        </mxCell>
        <mxCell id="eUzcAfyj9yn78HCPL1Ql-7" style="rounded=0;orthogonalLoop=1;jettySize=auto;html=1;endArrow=block;endFill=1;strokeWidth=3;edgeStyle=orthogonalEdgeStyle;entryX=0;entryY=0.5;entryDx=0;entryDy=0;" edge="1" parent="1" source="eUzcAfyj9yn78HCPL1Ql-2" target="eUzcAfyj9yn78HCPL1Ql-10">
          <mxGeometry relative="1" as="geometry">
            <mxPoint x="148" y="639" as="sourcePoint" />
            <mxPoint x="250" y="639" as="targetPoint" />
          </mxGeometry>
        </mxCell>
        <mxCell id="eUzcAfyj9yn78HCPL1Ql-8" style="rounded=0;orthogonalLoop=1;jettySize=auto;html=1;endArrow=block;endFill=1;strokeWidth=3;edgeStyle=orthogonalEdgeStyle;entryX=0;entryY=0.5;entryDx=0;entryDy=0;" edge="1" parent="1" source="eUzcAfyj9yn78HCPL1Ql-2" target="eUzcAfyj9yn78HCPL1Ql-9">
          <mxGeometry relative="1" as="geometry">
            <mxPoint x="328" y="639" as="sourcePoint" />
            <mxPoint x="430" y="579" as="targetPoint" />
          </mxGeometry>
        </mxCell>
        <mxCell id="eUzcAfyj9yn78HCPL1Ql-9" value="Remediation" style="rounded=0;whiteSpace=wrap;html=1;fontStyle=1" vertex="1" parent="1">
          <mxGeometry x="460" y="699" width="121" height="40" as="geometry" />
        </mxCell>
        <mxCell id="eUzcAfyj9yn78HCPL1Ql-10" value="Remediation" style="rounded=0;whiteSpace=wrap;html=1;fontStyle=1" vertex="1" parent="1">
          <mxGeometry x="460" y="543" width="120" height="40" as="geometry" />
        </mxCell>
        <mxCell id="eUzcAfyj9yn78HCPL1Ql-12" style="rounded=0;orthogonalLoop=1;jettySize=auto;html=1;endArrow=block;endFill=1;strokeWidth=3;edgeStyle=orthogonalEdgeStyle;entryX=0;entryY=0.5;entryDx=0;entryDy=0;entryPerimeter=0;" edge="1" parent="1" source="eUzcAfyj9yn78HCPL1Ql-10" target="eUzcAfyj9yn78HCPL1Ql-5">
          <mxGeometry relative="1" as="geometry">
            <mxPoint x="319" y="650.5" as="sourcePoint" />
            <mxPoint x="471" y="572.5" as="targetPoint" />
          </mxGeometry>
        </mxCell>
        <mxCell id="eUzcAfyj9yn78HCPL1Ql-14" style="rounded=0;orthogonalLoop=1;jettySize=auto;html=1;endArrow=block;endFill=1;strokeWidth=3;edgeStyle=orthogonalEdgeStyle;" edge="1" parent="1" source="eUzcAfyj9yn78HCPL1Ql-9" target="eUzcAfyj9yn78HCPL1Ql-4">
          <mxGeometry relative="1" as="geometry">
            <mxPoint x="611" y="572.5" as="sourcePoint" />
            <mxPoint x="691" y="572.5" as="targetPoint" />
          </mxGeometry>
        </mxCell>
        <mxCell id="eUzcAfyj9yn78HCPL1Ql-18" value="&lt;div style=&quot;color: rgb(204, 204, 204); background-color: rgb(31, 31, 31); font-family: Consolas, &amp;quot;Courier New&amp;quot;, monospace; font-size: 15px; line-height: 19px;&quot;&gt;&lt;div style=&quot;font-size: 15px;&quot;&gt;&lt;span style=&quot;color: rgb(206, 145, 120); font-size: 15px;&quot;&gt;s3-default-encryption-kms&lt;/span&gt;&lt;/div&gt;&lt;/div&gt;" style="text;whiteSpace=wrap;html=1;fontStyle=1;fontSize=15;" vertex="1" parent="1">
          <mxGeometry x="154" y="560" width="230" height="40" as="geometry" />
        </mxCell>
      </root>
    </mxGraphModel>
  </diagram>
</mxfile>
